
<svg width="23" height="16" viewBox="0 0 23 16" fill="none" xmlns="http://www.w3.org/2000/svg">
    <path d="M16.1145 7.21376C16.0941 6.33848 15.8747 5.47979 15.4733 4.70453C15.0719 3.92928 14.4994 3.25838 13.8003 2.74408C12.2019 1.56064 10.2736 0.922852 8.29416 0.922852C6.31467 0.922852 4.38643 1.56064 2.78797 2.74408C2.07412 3.24374 1.4906 3.91156 1.08753 4.69019C0.684456 5.46881 0.473877 6.33496 0.473877 7.21426C0.473877 8.09355 0.684456 8.9597 1.08753 9.73833C1.4906 10.517 2.07412 11.1848 2.78797 11.6844C3.13896 11.9637 3.51303 12.2117 3.90602 12.4259C3.94508 12.4468 3.97751 12.4785 3.99955 12.5174C4.02159 12.5562 4.03234 12.6005 4.03057 12.6453L3.93172 15.0209C3.92967 15.0668 3.94087 15.1124 3.96397 15.152C3.98706 15.1915 4.02104 15.2234 4.06174 15.2438C4.10244 15.2641 4.1481 15.2719 4.19313 15.2663C4.23816 15.2607 4.28061 15.2419 4.31527 15.2123L6.43175 13.4148C6.45793 13.3927 6.48858 13.3766 6.52155 13.3678C6.55451 13.359 6.58898 13.3576 6.62253 13.3637C7.17472 13.4594 7.73395 13.5074 8.29416 13.507C10.2787 13.5377 12.2166 12.8959 13.8003 11.6834C14.4997 11.1695 15.0725 10.4986 15.4739 9.7233C15.8753 8.94798 16.0946 8.08912 16.1145 7.21376Z" fill="white"/>
    <path d="M20.2918 4.7209C18.957 3.70118 17.3249 3.16173 15.6536 3.18792C15.5646 3.18792 15.4776 3.18792 15.3876 3.18792C16.3527 4.30161 16.8893 5.73054 16.8991 7.21274C16.8798 8.20831 16.6339 9.18591 16.1805 10.0693C15.7272 10.9527 15.0786 11.718 14.2854 12.3056C13.8183 12.6767 13.3148 12.998 12.7828 13.2645C13.6987 13.6159 14.6703 13.7942 15.6496 13.7905C16.122 13.7908 16.5936 13.7502 17.0593 13.6693C17.0875 13.6643 17.1164 13.6656 17.144 13.673C17.1717 13.6804 17.1974 13.6939 17.2194 13.7124L18.9988 15.2273C19.0282 15.2518 19.0639 15.2672 19.1016 15.2716C19.1394 15.2761 19.1777 15.2694 19.2118 15.2524C19.2459 15.2353 19.2745 15.2087 19.294 15.1756C19.3136 15.1426 19.3233 15.1045 19.3221 15.066L19.239 13.0621C19.2375 13.0242 19.2467 12.9867 19.2654 12.9539C19.2841 12.9211 19.3117 12.8943 19.3448 12.8767C19.6759 12.696 19.9911 12.4869 20.2869 12.2515C20.8884 11.8302 21.38 11.2673 21.7197 10.611C22.0593 9.95476 22.2367 9.22476 22.2367 8.4837C22.2367 7.74264 22.0593 7.01265 21.7197 6.35638C21.38 5.70012 20.8884 5.13718 20.2869 4.71589L20.2918 4.7209Z" fill="white"/>
</svg>
