<svg width="1440" height="1189" viewBox="0 0 1440 1189" fill="none" xmlns="http://www.w3.org/2000/svg">
<g opacity="0.491">
<mask id="mask0_1_5608" style="mask-type:alpha" maskUnits="userSpaceOnUse" x="0" y="0" width="1440" height="1189">
<rect width="1440" height="1189" fill="#1A1D30"/>
</mask>
<g mask="url(#mask0_1_5608)">
<path opacity="0.491" d="M1107.23 360.199L1113.67 376.296L1114.07 394.585L1114.08 395.315L1114.11 395.441L1114.19 395.828L1114.79 398.688L1115.69 402.885L1124.16 415.684L1128.08 431.896L1145.44 446.782L1148.2 445.174L1142.65 436.624L1142.2 424.107L1133.42 414.868L1125.48 410.995L1121.11 399.662L1120.99 399.338L1117.62 394.88L1118.03 392.772L1121.77 372.539L1125.5 371.036L1133.46 379.24L1140.81 386.85L1145 390.545L1149.37 401.505L1155.89 396.724L1158.91 390.638L1164.03 387.997L1170.53 384.668L1170.74 371.775L1170.79 368.33L1163.12 358.956L1151.97 345.353L1149.46 342.095L1147.6 339.663L1148.36 331.208L1149.46 329.997L1157.54 321.593L1166.31 322.852L1171.61 323.656L1183.6 318.238L1197.76 314.239L1199.79 312.474L1203.58 309.155L1210.71 301.9L1213.8 298.746L1212.92 291.191L1218.14 281.993L1220.33 271.085L1212.83 268.109L1212.42 256.825L1200.73 245.362L1195.13 239.861L1201.7 231.854L1207.05 225.319L1195.85 222.511L1191.5 227.438L1187.31 222.741L1183.61 222.183L1178.94 218.916L1178.33 214.419L1183.52 212.602L1186.63 208.26L1189.45 204.302L1190.25 203.174L1195.87 204.613L1195.93 209.47L1195.99 213.761L1196.02 216.662L1198.28 215.065L1200.77 213.289L1206.22 209.375L1214.88 211.42L1216.94 218.812H1216.97L1220.47 220.566L1223.95 222.289L1224.19 222.874L1225.88 226.684L1233.04 242.865L1245.33 236.643L1239.04 228.29L1232.82 220.053L1227.32 212.787L1225.57 210.49L1232.57 203.622L1231.16 194.278L1239.51 191.46L1246.17 191.28H1246.76L1247.63 189.619L1251.2 182.886L1255.68 161.299L1248.48 144.898L1244.27 137.343L1239.99 129.775L1229.2 124.848L1228.01 124.326L1226.41 123.607L1222.38 128.232L1213.5 121.968L1210.35 121.55L1204.69 120.809L1206.03 117.427L1215 94.9518L1230.61 94.7017L1234.67 94.619L1239.51 94.5452L1240.14 93.8454L1242.36 91.3809L1255.64 95.6821L1263.46 95.5472L1263.87 82.1022L1263.93 82.0806L1267.74 80.8213L1271.41 79.6215L1279.03 85.0398L1284.18 85.968L1285.2 76.5309L1293.98 76.7504L1294.76 87.0959L1292.36 94.8942L1287.95 109.212L1306.17 125.706L1320.09 138.327L1323.6 141.481L1320.75 125.83L1318.62 114.191L1317.77 109.442L1317.53 107.949L1308.34 102.102L1303.99 93.0629L1303.65 90.0569L1317.65 89.2852L1323.63 88.9506L1330.63 88.5638L1333.28 82.9998L1327.06 66.9895L1333.03 64.651L1329.49 58.4915L1331.62 56.0792L1340.26 58.6894L1343.38 59.6392L1350.58 55.955L1334.01 50.6213L1327.41 48.4806L1319.53 45.9333L1305.24 41.3083H1305.11L1294.74 40.0347L1270.63 37.1007L1263.17 36.2012L1269.69 41.15L1272.82 43.4994L1269.3 42.8932L1250.93 39.8026L1241.49 37.5576L1225.71 38.4445L1220.59 36.4297L1215.36 34.3627L1212.3 33.1629L1209.79 33.1413L1202.01 33.0585L1186.46 32.9128L1185.05 32.5782L1170.23 29.0919L1167.1 28.3508L1167.7 27.0358L1167.74 26.962L1167.59 26.9512L1158.49 25.3538L1157.23 25.1343L1152.02 28.34L1146.01 26.2623C1146.01 26.2623 1147.11 25.03 1147.6 24.9059C1145.98 24.9059 1131.01 23.9453 1131.01 23.9453L1133.53 29.6136L1128.46 31.1481L1105.57 28.59L1104.32 33.0172L1100.21 31.3568L1094.88 29.9176L1088.51 28.1853L1084.96 25.5967L1083.93 22.6105L1063.8 19.1674L1062.32 21.9341L1061.1 21.7542L1046.33 19.6873L1043.02 19.2177L1030.14 20.0848L1023.98 20.4914L1010.51 16.7334L1010.19 16.9637L1004.91 20.754L993.837 23.5621L994.068 22.5907L1008.46 13.2795L1012.22 10.8582L1006.34 8.74989L993.312 4.06194L978.446 5.52265L980.993 3.15348L968.09 2.22345C969.585 1.57834 971.118 1.0274 972.682 0.573852C972.995 0.656602 961.095 0 961.095 0L958.976 2.68217L964.999 5.20064L958.724 7.27838L955.675 7.28918L929.931 7.34135L924.963 8.98016L919.138 10.9122L922.016 17.4062L903.266 19.2231L898.997 19.6297L902.922 24.2961L906.054 24.9545L911.535 26.0824L912.507 27.2409L907.069 27.061L904.437 26.9674L897.119 25.3286L895.32 24.9221L887.272 27.0412L896.009 30.0472L901.186 31.8227L895.801 30.9556L884.953 29.2017L884.223 25.2027L876.779 28.8563L883.282 32.8229L886.049 39.88L893.649 40.0995L895.183 40.1516L906.281 46.088L905.874 49.2091L892.71 44.093L890.769 43.3411L892.408 45.3865L894.387 47.8509L893.374 50.7112L892.57 52.9976L892.402 53.5085L883.393 56.8491L879.823 56.1709L876.21 55.4711L873.872 54.3432L874.215 53.1847L881.607 54.113L884.228 53.5391L884.426 53.4977L884.457 53.3934L886.065 48.6749L887.004 45.7624L887.364 44.7191L884.485 43.78L878.009 35.3341L878.509 34.4347L872.067 29.5776L873.507 25.1937L857.962 22.2921L857.534 23.0332L853.098 31.1031L856.178 33.8375L857.682 37.491L868.694 42.7834L867.577 45.874L843.292 38.9841L832.927 38.5254L835.85 42.2618L834.879 43.566L833.366 45.5915L827.906 43.2529L813.322 46.5935L806.63 46.2589L809.732 42.6251L805.315 43.5965L803.937 43.9096L803.437 44.0247L802.466 46.1132L801.066 45.0483L790.888 48.2431V50.042L786.691 50.3766L785.292 53.7802L776.837 51.9219L775.668 49.5941L781.075 47.6729L769.906 45.0213L767.15 44.3539L770.051 46.5989L771.46 47.6783L770.677 51.5207L773.631 52.9293V58.8387L771.021 56.8239L770.604 56.4893L767.241 55.8309L756.628 60.5081L761.086 65.2158L759.677 66.207L746.471 62.7891L744.237 64.6995L751.879 68.238L748.799 70.7564L744.978 68.9575L737.149 66.1189L734.152 61.6216L734.894 59.7004L724.424 53.8539L722.942 51.9651L754.333 58.5005L760.449 54.3144L754.872 47.7682L728.387 40.7956L725.485 41.7868L711.152 38.8006L707.174 36.3271L715.609 35.1363L707.174 32.902L704.273 35.5644L705.379 31.6914L700.639 31.8371L701.078 34.2062L700.493 34.28L698.615 34.4779L698.991 32.8804L699.128 32.2023L698.647 32.589L698 33.0585L697.05 33.7889L692.936 36.8992L695.881 32.1069L696.267 31.4701L694.2 32.1807L686.163 34.9888L686.591 32.9524L680.797 33.5155L680.306 37.0647L676.641 39.7055L671.797 38.1818L671.473 36.6995L664.918 38.8294L664.49 41.3875L659.082 45.7049L642.547 62.7315L633.601 68.9539L628.465 69.3515L627.463 69.8912L615.604 76.405L613.474 77.5743L613.59 82.0716L618.349 83.115L622.566 84.0432L618.797 84.2519L612.775 84.5433L617.828 94.0109L614.842 97.2058L622.397 101.523L625.394 100.302L634.905 96.4179L635.729 93.2032L637.326 91.7947L647.04 110.293L646.141 111.212L646.339 112.036L647.695 116.933L653.468 116.546L653.77 114.207L661.11 112.747L662.675 107.559L664.189 102.486L662.049 98.6953L668.908 96.7741L672.781 91.8469L667.28 87.1067L665.578 85.6352L665.139 80.7782L669.68 73.8668L676.434 70.7241L679.638 69.231L681.371 66.225L680.734 63.8648L685.505 59.8874L693.679 59.3136L697.291 64.0429V64.0537L694.524 64.7841L686.037 73.4188L682.686 73.5753L681.725 76.0398L684.001 81.4366L683.153 87.265L691.223 91.5248L696.631 90.3448L715.098 86.3566L715.296 88.8624L722.082 91.3054L712.414 92.516L712.351 94.4571L696.521 95.3961L693.743 95.576L693.691 97.7473L696.374 101.557L697.543 103.185L696.989 108.291L696.206 107.852L691.31 105.074L687.374 104.322L684.211 108.947L684.722 117.33L684.879 120.208L679.649 120.845L679.138 121.712L678.314 123.06L673.817 123.331L672.522 121.495L672.342 121.245L671.527 121.464L651.723 126.402L649.024 124.148L650.037 122.614L639.818 124.931L636.09 122.353L633.835 120.807L633.187 120.349L633.145 120.192L632.519 117.674L632.374 117.111L637.812 110.388L635.454 110.106V104.322L628.668 108.247L625.745 109.949L628.263 120.754L629.391 125.587L627.574 126.026V128.834H624.964L623.399 127.091L613.095 129.419L613.534 132.947L612.312 134.272L610.819 132.821L611.665 131.275L609.337 131.682L607.538 135.868L607.277 136.494L595.156 142.089L594.077 147.527L590.434 148.786L589.589 149.068L587.73 151.105L581.832 151.815L580.932 149.822H578.437L579.367 155.147L574.357 156.42L569.452 155.147L563.907 156.964L564.022 158.791L576.278 165.607L580.151 170.754L581.051 173.114L579.767 175.953L578.836 184.701L574.87 188.063L552.499 186.477L545.148 185.977L544.407 187.72L539.167 190.121L541.61 193.973L540.171 196.75L540.369 204.225L536.231 214.183L536.096 217.357L538.759 217.639L538.998 227.173L547.992 225.878L551.563 228.895L552.596 232.611L555.967 231.172L559.318 229.273L564.852 229.21L565.582 229.179L569 228.334L573.812 227.143L578.718 224.365L584.654 216.328L583.265 214.041L583.12 209.792L586.377 205.669L588.392 202.913L596.984 199.395L600.596 195.02L599.803 190.092L602.224 187.574L610.022 187.511L614.126 190.684L617.936 189.035L626.423 182.614L630.118 182.28L635.369 185.494L636.412 189.42L638.74 193.557L654.452 203.924L657.501 203.987L658.733 206.065L660.163 209.353L662.732 209.855L663.243 211.212L664.986 215.804L663.473 219.855L663.128 221.834L664.443 222.374L666.29 219.855L669.192 216.128L669.996 213.289L667.783 212.046L667.012 210.219L666.652 209.362L668.384 206.648L671.203 206.721L673.75 208.486L674.304 208.862L674.367 208.904L676.121 210.125L676.361 207.932L676.434 207.254L675.506 206.763L673.074 205.504L670.538 204.189L664.4 200.983L664.619 198.738L657.636 196.775L654.108 193.967L651.372 187.151L647.938 186.18L645.182 183.122L644.419 177.736L645.16 176.671L646.152 175.271L650.807 174.634L652.948 180.02L655.767 177.264L657.925 178.955L660.577 183.8L664.148 186.273L681.666 198.373L681.833 198.499L679.964 205.943L681.07 207.038L689.568 215.473L689.748 218.083L699.3 219.681L700.25 221.717L690.667 221.446L693.475 227.511L700.365 230.863L701.326 223.827L704.636 222.48L698.509 216.353L699.626 213.575L697.402 206.675L703.082 204.786L717.676 205.308L727.083 203.032L732.512 203.877L732.084 204.66L731.082 206.459L730.236 206.574L717.208 208.108L715.987 211.48L719.536 212.232L720.616 216.491L723.33 227.172L732.215 231.942L738.52 232.077L741.298 228.674L753.17 233.738L756.031 232.714L759.193 229.019L763.401 230.616L766.95 228.362L767.878 227.767L767.409 228.958L766.15 232.277L766.202 234.795L767.851 239.764L760.899 262.876L754.52 265.621L752.526 266.478L751.987 265.591L750.348 262.761L737.121 265.285L735.084 265.692L731.994 265.222L714.561 262.477L713.391 259.877L704.665 257.956L702.087 254.538L686.796 256.575L687.35 264.13L687.068 264.432L683.81 267.888L680.146 269.349L680.02 269.275L674.727 265.569L673.704 264.85L672.576 264.63L666.897 263.628L666.208 263.285L663.329 261.876L660.437 255.958L639.839 249.392L634.108 246.154L639.703 239.431L636.331 232.865L635.829 229.127L632.656 225.495L625.964 228.49L617.644 228.24L611.037 229.837L605.964 227.679L581.679 234.088L573.328 238.211L570.81 239.485L568.169 237.909L567.439 237.961L564.974 238.141L559.568 238.553L559.182 238.575L556.676 235.945L552.196 235.339L549.378 241.77L548.458 243.858L537.215 251.176L536.965 251.333L530.489 262.337L531.2 270.971L518.265 282.527L513.443 283.634L510.28 289.95L507.315 292.58L505.74 297.392L504.403 301.484L503.324 304.668L503.261 304.699C502.937 304.879 498.24 307.577 497.76 307.957C497.279 308.336 490.359 323.94 490.359 323.94L493.957 330.776L493.216 335.003L495.596 342.258L492.277 352.447L490.501 357.981L487.139 364.14L488.758 367.961L490.836 372.91L490.386 380.582L496.378 385.375L501.608 391.106L507.413 397.433L509.605 407.866L510.212 408.305L522.165 417.12L539.088 428.885L551.302 423.592L561.898 422.904L571.513 424.792L580.522 421.463L594.082 416.426L594.793 416.165L605.649 418.097L605.962 418.608L610.033 425.706L611.713 428.619L623.406 427.241L631.811 430.644L634.775 439.225L629.089 458.2L629.591 459.839L631.419 465.559L641.753 480.173L642.003 480.533L646.398 492.287L652.829 505.535L651.242 509.188L650.523 510.921L655.252 524.554L648.289 536.997L643.309 562.157L644.761 565.111L658.573 593.454L658.458 599.164L662.007 621.933L664.148 625.671L671.205 638.001L676.915 649.902L676.039 656.082L675.965 656.531L679.932 666.866L698.291 664.894L709.973 665.668L711.634 665.157L722.177 661.795L739.547 647.17L742.847 641.741L746.646 635.507L751.647 631.717L756.126 618.157L755.11 611.965L760.487 609.596L768.202 606.214L768.537 602.56L769.404 593.426L769.738 589.865L766.419 580.668L773.122 572.65L781.964 562.911L792.487 558.475L800.043 546.084L798.604 530.433L799.825 523.104L795.941 516.402L793.331 503.915V503.707L793.989 495.971L791.036 489.436L791.62 488.215L799.482 471.449L806.665 465.561L820.705 444.661L830.288 440.401L842.52 425.077L852.292 405.085L854.949 395.958L856.066 392.126L858.268 384.849L853.81 382.176L848.594 386.906L839.908 388.627L831.41 390.298L821.157 392.031L815.362 386.958L812.137 384.128L812.022 384.034L814.663 378.438L814.161 378.051L795.992 363.446L794.644 362.367L790.375 348.18L780.73 338.68L779.165 328.148L778.026 320.454L770.008 313.219V313.073C769.982 311.077 770.094 309.082 770.343 307.102C770.677 305.964 758.661 285.253 758.661 285.253L752.158 270.836L758.86 280.775L764.048 282.214L777.745 299.648L787.432 311.997L790.575 323.647L791.975 328.794L807.863 348.681L815.4 376.179L815.463 376.387L815.735 376.398L819.054 376.524L821.34 376.65L823.596 376.743L858.725 360.489L862.055 355.781L863.433 354.946L879.175 345.478L884.415 343.475L886.586 338.819L887.223 337.441L889.803 331.908L892.85 328.702L900.868 317.961L892.831 310.319L884.239 308.085L881.253 301.582L879.844 296.937L870.229 304.62L867.567 306.779L855.769 306.653L850.749 302.78L849.371 298.642L847.293 292.546L831.164 274.089L831.54 273.765L837.991 268.264L848.2 276.156L849.515 277.607L855.224 284.006L855.798 284.643L861.166 287.124L871.94 292.051L877.849 289.608L881.003 288.313L883.413 292.395L883.611 292.729L890.418 297.563L895.304 298.345L905.252 299.891L920.055 298.991H933.846L941.894 306.8L945.569 310.328L949.253 314.231L956.665 312.958L952.009 317.885L948.962 318.678L955.736 322.958L961.301 326.496L964.558 325.453L964.902 325.338L966.321 316.944L970.559 318.103L970.131 327.029L969.829 332.541L977.836 357.042L980.238 364.401L990.698 387.639L998.214 404.269L1001.69 405.229L1013.06 390.154V372.09L1013.65 357.673L1023.91 350.166L1028.76 344.707L1038.38 333.85L1039.65 332.629L1045.54 327.128L1050.36 317.608L1063.29 312.044L1074.76 327.034L1075.45 327.63L1078.54 330.328L1079.22 332.06L1088.2 355.727L1093.89 356.479L1102.01 347.168L1107.23 360.199Z" fill="#D4D4D4" fill-opacity="0.16"/>
<path opacity="0.491" d="M848.025 529.031L847.922 528.671L847.627 528.851L843.896 531.39L844.925 534.807L841.49 539.414L839.266 540.026L839.797 545.308L835.994 548.245L832.274 549.458L830.397 553.505L824.24 553.484L819.01 554.687L818.307 559.204L817.676 565.24L817.316 568.658L819.456 576.772L818.141 579.883L813.921 586.235L811.658 590.138V596.521L813.781 602.551L814.006 606.273L819.012 611.054L821.397 612.93L830.196 609.333L833.549 604.226L840.685 582.867L845.343 569.879L846.739 561.019L848.728 557.267L847.505 550.856L849.198 549.999L850.533 552.262L852.979 548.125L852.173 545.117L848.025 529.031Z" fill="#D4D4D4" fill-opacity="0.16"/>
<path opacity="0.491" d="M543.265 138.352L555.408 134.442L557.262 134.754L557.885 134.851L557.951 134.57L559.826 128.067L558.797 124.649L563.548 121.866L561.815 118.808L561.245 117.06L557.885 117.794L556.446 116.354L551.049 117.481L548.307 120.402L550.162 120.53L551.049 121.764L546.854 123.797L544.362 122.37H542.909L541.579 124.403L543.337 124.901L541.799 126.997L546.08 128.465L542.313 130.469L542.506 132.223L539.865 134.658L543.265 138.352Z" fill="#D4D4D4" fill-opacity="0.16"/>
<path opacity="0.491" d="M562.957 107.991L563.565 109.036L566.026 107.991L566.474 108.567L564.542 110.819L562.432 115.805L562.171 116.356H563.547L563.645 116.12L565.557 111.623L565.933 112.78L567.768 112.31L567.849 114.69L566.433 116.816L565.388 118.407L565.863 120.026L566.622 118.808L570.022 119.214H573.744L572.305 121.466L573.11 122.839H575.496L573.978 124.902L574.461 126.951L570.042 128.464L568.467 127.358L567.172 128.061L569.079 131.405L569.032 131.686L568.548 133.94L564.521 134.955L562.166 135.894V137.126L566.926 137.065L569.475 138.972L572.243 139.47L573.695 137.815L576.08 137.426L575.652 138.736L573.006 139.803L567.593 141.46L565.131 143.789L559.554 147.194L562.098 147.464L567.379 144.976L568.505 146.194L570.355 145.786L575.751 143.303L580.864 143.257L584.936 143.946H588.306L591.283 142.35L592.312 141.663L593.363 140.959L592.587 140.695L589.889 139.796L590.056 138.684L593.809 136.12L594.329 135.779L596.011 133.76L595.629 131.512L595.104 131.308L593.019 130.524L589.844 131.839L588.157 131.931L588.273 130.182L589.227 128.058L586.984 127.038L584.802 126.054L588.219 126.401L588.112 124.962L586.007 122.362L583.983 121.204L582.954 120.598L581.772 118.126V115.343L580.36 113.767L575.737 112.61L573.274 111.923L576.949 110.139L581.184 105.23L581.348 103.979L581.448 103.26L580.698 103.132L577.39 102.571L570.342 103.88L570.79 101.851L575.377 99.5216L576.361 97.4565L576.464 97.2676L576.26 97.2838L567.937 97.9871L566.908 101.473H563.864L563.925 103.945L565.857 104.604L563.558 105.76L561.428 102.661L558.798 104.677L563.096 106.206L562.957 107.991Z" fill="#D4D4D4" fill-opacity="0.16"/>
<path opacity="0.491" d="M1391.43 611.62L1388.61 606.286L1388.24 603.884L1385.4 602.882L1384.02 598.842L1384.23 593.675L1380.89 591.358L1379.71 593.895L1378.08 590.022L1378.86 587.381L1376.32 582.61L1377.92 581.754C1377.68 580.895 1377.38 580.053 1377.02 579.236C1376.82 578.923 1374.67 578.849 1374.67 578.849L1371.57 577.388L1370.89 574.569L1365.77 571.991L1365.71 570.383L1365.63 569.381L1364.63 566.604L1366.57 562.533L1363.73 556.98C1363.73 556.98 1363.98 552.596 1364.07 552.187C1364.17 551.779 1364.66 547.532 1364.66 547.532L1362.23 544.63L1360.44 542.98L1357.66 544.443L1356.41 542.898L1356.79 534.66L1354.99 531.111L1354.73 530.59L1353.83 526.393L1353.96 522.676L1353.21 521.12L1350.9 522.268L1348.33 530.755L1343.75 549.316L1343.05 551.353L1340.35 559.181L1337.38 564.056L1334.51 563.963L1332.5 563.889L1330.34 562.157L1327.97 560.277L1324.98 558.669L1322.22 555.119L1316.93 553.292L1312.46 550.129L1310.74 546.424L1312.96 543.646L1315.12 540.284V536.922L1316.83 535.22L1318.59 536.263L1319.28 533.371L1321 531.482L1321.65 529.874L1316.87 527.65L1318.07 530.019L1316.87 531.998L1314.65 529.953L1310.3 529.607L1306.02 528.01L1301.68 526.956L1300.78 525.024L1298.85 528.395L1296.5 530.901L1293.87 530.766L1291.71 530.244L1289.34 531.987L1287.3 531.403L1284.99 534.837L1285.4 536.925L1281.86 539.849L1281.06 540.892L1278.54 544.065H1281.2L1282.37 545.976L1280.26 547.395L1277.36 549.399L1277.02 547.875L1273.46 546.862L1271.48 549.19L1271.54 545.474L1269.82 542.425L1266.29 539.408L1265.16 541.84L1262.5 542.507L1260.34 544.47L1256.28 544.772L1257.13 547.33L1255.37 550.097L1253.76 549.575L1251.36 550.89L1252.39 555.37L1252.64 556.402L1248.71 555.379L1246.92 554.668L1246.55 555.137L1246.37 555.398L1245.99 555.938L1246.65 558.349L1244.09 562.409L1243.09 555.933L1238 560.212L1236.39 563.09L1237.23 567.194L1236.42 567.778L1233.77 569.678L1228.58 575.712L1227.73 576.651L1220.92 578.885L1215.32 579.73L1209.88 582.632L1205.26 583.217L1192.29 589.292L1191.75 590.993L1191.2 592.663L1189.28 593.832L1190.06 589.292L1187.56 591.348L1186.66 598.903L1183.17 604.3L1183.28 606.315L1183.36 607.775L1184.25 610.396L1185.71 614.698L1185.51 615.574L1184.9 617.912L1183.17 619.171L1181.87 620.841L1183.8 644.527L1181.49 659.393L1178.94 662.358L1176.71 662.212L1175.28 665.835L1179.55 669.917L1187.12 671.556L1189.75 670.586L1193.57 667.235L1197.37 666.806L1197.65 666.565L1202.22 663.099L1218.97 664.373L1226.6 659.789L1232.33 656.344L1251.71 651.5L1254 651.124L1264.62 649.325L1268.71 652.023L1271.03 652.383L1272.35 652.726L1277.53 654.083C1277.59 655.224 1277.54 656.369 1277.38 657.501C1277.16 657.97 1277.75 659.818 1277.75 659.818L1279.4 659.526L1279.54 668.274L1282.22 671.343L1283.22 667.805L1288.13 663.962L1294.11 660.204L1297.05 655.579L1297.23 659.526L1295.36 662.376L1292.13 664.912L1288.82 670.669L1285.22 672.047V673.018L1289.88 672.694L1290.88 671.869L1293.28 666.652L1294.18 665.42L1295.4 670.16L1291.61 673.687L1290.87 674.961L1292.52 675.285L1297.6 672.8L1296.25 681.162L1295.28 687.123L1298.82 690.642L1299.25 691.081L1305.56 692.187L1310.6 694.756L1318.09 689.036L1319.85 693.576L1324.48 691.968L1333.26 688.982L1341.9 688.419L1341.96 688.388L1346.74 685.173L1351.3 678.138L1353.89 674.13L1357.24 671.404L1362.65 663.595L1364.78 661.726L1377.27 650.588L1380 646.245L1382.82 640.503L1386 636.443L1388.67 632.705L1389.73 627.725L1389.55 624.75L1389.21 622.485L1391.7 614.78L1391.43 611.62Z" fill="#D4D4D4" fill-opacity="0.16"/>
<path opacity="0.491" d="M1397.43 520.14L1393.27 516.341L1391.71 514.076L1390.09 512.844L1388.8 511.32L1387.22 510.652L1384.52 504.378L1381.32 501.287L1379.13 498.449L1379.07 497.238L1382.35 495.901C1383.06 495.738 1383.72 495.42 1384.29 494.971C1384.32 494.943 1384.36 494.907 1384.38 494.866C1384.4 494.825 1384.42 494.779 1384.42 494.732C1384.21 493.81 1383.78 492.954 1383.16 492.237C1383.04 492.152 1377.65 490.222 1377.65 490.222L1374.69 489.429L1374.6 489.346L1372.69 487.268L1372.76 484.878L1369.72 481.161L1369.43 480.801L1366.9 479.454L1357.84 474.735L1352.95 473.055L1349.17 470.936L1345.24 469.474L1339.99 468.263L1333.61 464.494L1330.64 463.649L1329.27 464.118L1328.16 464.478L1326.98 467.61L1325.42 468.769C1324.76 468.525 1324.09 468.322 1323.41 468.162L1323.28 468.11C1322.76 468.069 1318.92 474.144 1318.92 474.144L1316.94 475.335L1315.64 475.2L1314.57 473.561L1313.63 472.589L1312.36 472.381L1311.36 470.001L1310.56 468.09L1310.8 465.212L1310.99 461.767L1310.59 460.483L1310.15 459.094L1304.39 457.507L1300.21 457.687L1295.7 459.88L1294.6 461.456L1293.85 462.535L1297.25 464.334L1302.98 468.259L1305.48 468.619L1309.58 467.335L1309.64 469.475L1307.98 470.927L1306.3 470.425L1302.77 471.573L1300.68 471.551L1299.6 472.575L1303.31 474.914L1303.92 477.409L1304.22 478.652L1305.26 479.278L1306.45 477.839L1307.71 475.552L1314.05 480.01L1324.37 483.967L1327.44 485.2L1327.98 485.398L1331.16 488.916L1333.45 493.728L1336 497.299H1333.94L1335.26 499.44L1335.12 500.964L1332.86 500.336L1331.28 501.442L1329.16 502.903L1327.97 506.076L1331.78 506.222L1332.32 505.804L1334.66 504.029L1336.67 503.705L1338.47 505.02L1341.82 503.486L1340.94 506.22L1348.32 511.257L1353.41 512.072L1357.17 511.278L1358.89 509.555L1358.53 508.031L1355.26 506.747L1352.29 505.704L1352.6 505.108L1357.07 505.86L1359.77 505.484L1359.04 503.667L1358.86 502.905L1360.42 503.835L1360.71 503.961L1362.14 502.989L1361.12 501.883L1360.92 501.444L1361.14 500.185L1373.11 503.703L1375.68 506.72L1379.4 514.758L1381.46 516.794L1385.55 517.693L1390.84 517.861L1394.06 518.78V520.127L1397.43 520.14Z" fill="#D4D4D4" fill-opacity="0.16"/>
<path opacity="0.491" d="M1186.01 506.277L1186.57 506.338L1196.4 505.777L1201.03 508.54L1201.59 503.005L1195.67 502.74L1191.08 499.051L1187.12 495.901L1185.5 496.176L1183.5 494.3L1178.94 497.369L1171.75 496.696L1169.22 493.769L1163.07 491.405L1161.01 492.445L1157.06 491.405L1155.33 493.821L1153.22 496.768L1158.94 497.696L1158.1 499.695L1162.95 499.981L1168.86 502.202L1170.57 502.06L1172.91 501.88L1181.77 505.773L1186.01 506.277Z" fill="#D4D4D4" fill-opacity="0.16"/>
<path opacity="0.491" d="M1155.7 476.945L1157.08 474.446L1156 471.368L1155.08 469.667L1151.12 469.197L1149.97 467.596L1149.46 466.912L1148.83 462.723L1146.93 460.613L1144.88 460.949L1142.65 460.409L1142.33 458.371L1144.12 456.078L1145.44 453.476L1142.54 451.875L1139.61 453.18L1139.75 450.355L1131.86 443.586H1129.44L1114.66 427.732L1112.47 425.091L1110.83 423.093L1105.79 423.042L1102.39 421.146L1100.19 420.382L1098.34 420.729V424.399L1101.57 428.936L1106.5 432.625L1111.22 437.896L1111.31 438.191L1111.69 439.423L1113.72 440.952L1116.86 443.462L1119.56 452.647L1123.72 454.309L1129.66 468.001L1129.87 468.468L1136.09 474.982L1137.75 479.406L1147.75 489.152L1148.68 488.113L1151.76 489.825L1152.21 488.926L1155.22 490.75L1155.7 476.945Z" fill="#D4D4D4" fill-opacity="0.16"/>
<path opacity="0.491" d="M1227.14 423.93L1228.63 423.669C1228.83 423.363 1228.99 423.033 1229.1 422.687C1229.1 422.489 1227.82 421.383 1227.82 421.383L1225.12 420.203L1221.34 419.744L1221.81 419.085V417.895L1220.28 418.605L1219.52 417.166L1219.99 415.727V414.746L1218.52 414.892L1217.41 413.827V412.908L1216.81 412.573L1215.91 414.171L1215.16 414.088V411.886L1214.13 412.825L1212.53 416.04L1211.51 418.918L1210.03 420.881L1208.15 421.6L1208.12 423.604L1206.66 424.721L1204.25 425.284L1201.99 426.161L1199.48 429.039L1196.85 433.779L1194.72 436.044L1194.62 436.096L1192.87 436.995L1187.96 438.217L1186 439.773L1185.14 442.507L1185.82 446.067L1185.94 446.726L1182.03 445.287L1180.71 444.274L1179.93 445.224L1178.81 444.911L1177.5 443.335L1176.41 442.824L1175.01 443.93L1172.93 449.939L1173.33 451.692L1174.87 453.529L1174.94 455.199L1174.17 456.807L1174.57 458.111L1179.25 462.121L1179.88 464.053V466.987L1179.91 472.52L1180.83 472.792L1182.27 472.207L1182.56 473.555L1187.32 472.375L1188.81 472.081V474.639L1189.2 476.237L1192.82 475.276L1194.26 474.859L1195.16 472.761L1197.1 474.021L1198.13 473.823L1198.9 476.016L1201.6 474.668L1203.95 478.266V480.459L1204.23 480.333L1209.17 477.786L1213.33 472.085L1214.61 468.922L1214.79 468.453L1214.49 468.307L1213.48 467.868L1213.41 467.127L1213.38 466.312L1213.35 465.81L1213.32 465.271L1213.35 465.249L1216.7 462.472L1218.77 460.802L1219.57 460.3C1219.83 459.826 1219.99 459.304 1220.04 458.766C1220.07 458.536 1220.04 458.17 1220.04 457.794C1220.01 456.949 1219.95 455.995 1219.95 455.995L1220.26 452.905L1221.29 450.536L1222.8 449.534L1222.14 448.386L1222.05 447.541L1223.08 448.897L1224.42 449.492L1225.77 449.69L1226.31 449.773L1227.81 449.428L1228.27 448.447L1227.34 447.517L1226.72 446.902L1222.4 444.49L1221.62 443.425L1222.25 441.786L1222.83 441.034L1222.65 439.363L1219.99 436.92L1218.61 436.189L1218.25 435.855L1218.85 434.038L1217.74 433.119L1218 432.701L1219.93 432.388L1220.69 431.532L1220.72 430.593L1223.16 428.85L1225.86 428.559H1227.79L1224.6 426.502L1223.54 425.616L1223.34 424.425L1223.98 423.975L1227.14 423.93Z" fill="#D4D4D4" fill-opacity="0.16"/>
<path opacity="0.491" d="M273.062 782.532L271.324 780.575L272.763 779.496L269.129 777.697H265.494L265.335 777.911L263.974 780.07L262.65 780.845L263.369 782.712L265.918 782.507L268.422 782.282L268.804 783.425L266.841 784.504L266.301 785.736L266.271 785.828L266.343 785.839L268.219 787.062L272.567 788.154L272.927 789.386L271.918 790.203L266.983 788.139L266.611 788.159L262.41 788.404L260.561 790.361L267.025 791.379L271.302 792.063L271.482 793.236L274.765 794.439V793.408L276.136 793.297L276.926 794.97H278.052V793.297L278.199 792.655L279.514 793.297H283.909L284.938 792.522L286.942 793.297L287.746 792.471L291.441 791.91V790.361H287.746L273.062 782.532Z" fill="#D4D4D4" fill-opacity="0.16"/>
<path opacity="0.491" d="M389.433 493.155C389.235 492.549 388.681 490.075 388.546 489.658C388.462 489.188 386.416 487.382 386.416 487.382L383.639 486.391L378.377 484.209C376.877 483.435 375.328 482.758 373.741 482.183C372.602 481.87 373.522 481.933 372.333 480.69C371.153 479.416 370.534 478.665 370.079 478.172C369.766 477.812 369.046 477.055 368.586 476.563L368.21 476.187L366.09 475.686L361.528 472.987L360.474 473.28L358.553 473.843C358.553 473.843 355.901 473.624 354.128 473.468C353.293 473.394 352.624 473.363 352.519 473.363C352.248 473.363 349.044 472.392 348.762 472.392C348.479 472.392 343.917 472.779 343.917 472.779L336.641 474.626C336.641 474.626 338.477 471.098 337.821 470.012C337.393 469.038 337.231 467.968 337.351 466.91L334.126 463.842C334.126 463.842 333.519 463.633 332.726 463.302C331.222 462.717 329.01 461.778 329.114 461.339C329.198 460.661 322.213 460.661 322.213 460.661C322.213 460.661 320.657 461.246 319.468 461.685C318.894 461.915 318.414 462.113 318.257 462.206C317.766 462.519 316.243 463.856 316.243 463.856L313.204 465.621C313.204 465.621 311.148 469.129 310.959 469.546C310.77 469.963 310.249 468.69 310.249 468.69L307.41 467.342L304.007 466.705L303.192 464.534L299.829 462.541L298.013 465.506L293.451 465.912L293.733 463.469L296.374 463.176L296.458 459.199L300.551 455.961L303.359 453.383L306.057 450.888L308.542 447.578L307.351 444.811L304.125 443.089L302.686 440.646C302.686 440.646 302.404 438.193 302.362 437.327C302.299 436.493 302.003 433.309 302.003 433.309L300.896 430.042C300.896 430.042 294.372 423.767 293.943 422.526C293.515 421.285 292.033 422.254 290.822 421.555C289.968 421.071 289.173 420.49 288.453 419.822L285.215 419.353H285.141C285.141 419.353 281.279 418.801 280.81 418.801C280.308 418.801 277.813 419.135 277.813 419.135L273.972 419.939L273.763 419.97L270.245 419.135L268.282 416.766L266.55 415.179C266.55 415.179 261.622 416.223 262.196 414.364C262.556 413.214 262.659 411.999 262.499 410.804C262.499 409.365 261.434 409.739 260.52 407.505C259.57 405.282 258.338 406.451 258.338 406.451C258.338 406.451 256.584 404.99 255.143 404.03C253.702 403.069 254.078 403.736 254.078 403.736C254.078 403.736 250.226 403.643 249.818 403.643C248.949 403.817 248.071 403.946 247.188 404.03C246.916 403.936 245.675 402.725 245.873 401.952C246.071 401.178 247.638 402.056 248.003 401.617C248.327 401.159 248.848 400.25 248.848 400.25C248.848 400.25 248.807 399.624 248.744 398.991C248.692 398.437 248.651 397.874 248.651 397.732C248.651 397.449 248.368 397.158 247.774 395.967C247.181 394.776 246.929 395.174 246.929 395.174C246.098 395.459 245.229 395.618 244.351 395.643C243.991 395.463 242.534 395.841 241.919 395.58C241.858 395.566 241.798 395.549 241.739 395.528C241.352 395.172 241.009 394.773 240.716 394.337C240.716 394.337 239.636 392.594 239.839 391.968C240.043 391.342 239.411 391.707 238.388 390.977C237.774 390.495 237.026 390.218 236.247 390.183C235.473 390.379 234.683 390.508 233.887 390.57C233.563 390.425 232.088 392.009 232.088 392.009L231.189 392.312L229.737 392.851L225.916 393.571C225.916 393.571 220.3 390.784 219.902 390.669C219.496 390.586 215.247 390.836 215.247 390.836L215.067 390.867C213.743 391.098 212.402 391.21 211.059 391.202C210.381 391.045 210.057 390.471 209.461 389.437C208.855 388.358 207.905 387.296 208.166 386.066C208.427 384.835 206.727 385.742 205.004 384.751C203.25 383.812 203.584 384.571 203.584 384.571C202.5 384.643 201.412 384.573 200.346 384.362C199.835 384.038 196.275 387.296 196.097 387.681C195.919 388.066 194.165 390.311 194.165 390.311C194.165 390.311 194.552 395.134 194.705 396.068C194.716 397 194.516 397.922 194.12 398.766C193.714 399.172 193.266 399.534 192.784 399.845C191.648 399.45 190.591 398.856 189.663 398.091C189.478 397.871 189.321 397.629 189.193 397.372C189.047 397.059 189.047 396.798 188.833 396.098C188.707 395.723 188.668 395.323 188.72 394.931C188.773 394.538 188.915 394.163 189.135 393.833C189.315 393.323 189.438 393.249 190.857 391.275C192.215 389.297 191.631 388.822 191.535 388.07C191.44 387.318 190.585 387.474 190.825 386.859C191.075 386.211 190.177 385.836 190.01 384.281C189.842 382.727 191.305 384.229 191.575 384.051C191.845 383.873 194.383 381.797 194.383 381.797L196.387 380.021L194.685 378.915C194.685 378.915 194.163 378.832 192.212 378.487C190.29 378.127 191.073 379.895 191.073 379.895L188.195 382.141C188.195 382.141 186.952 383.436 186.41 383.905C185.338 384.603 184.214 385.217 183.048 385.742C181.937 385.921 180.811 386.001 179.686 385.981C177.984 385.918 179.06 386.327 179.06 386.327C178.746 387.015 178.32 387.646 177.801 388.196C177.227 388.591 177.142 389.647 176.924 389.772C176.707 389.896 175.464 390.378 174.899 389.906C174.303 389.415 174.719 389.322 174.719 389.322L173.3 387.068C172.924 387.306 172.564 387.567 172.22 387.85C171.725 388.183 171.188 388.45 170.623 388.644L170.508 393.414L170.058 396.307L168.702 398.029C168.702 398.029 167.459 399.98 166.426 399.637C165.435 399.291 164.703 401.056 164.307 401.339C163.911 401.621 163.767 403.468 163.767 403.468L163.339 405.681L162.837 406.924L162.055 406.35C162.055 406.35 161.657 405.244 161.335 404.575C160.866 403.841 160.633 402.981 160.668 402.11C160.824 401.128 158.246 400.554 158.246 400.554L155.408 398.779L153.643 398.027L150.981 397.379L147.671 397.714L145.06 398.872L143.801 400.552L139.95 401.335H138.978L135.783 400.855C135.783 400.855 133.914 400.583 133.425 399.581C133.018 398.84 131.712 397.492 131.097 396.564C130.927 396.353 130.825 396.094 130.806 395.823C130.973 395.156 130.065 393.682 130.065 393.682L126.433 389.768C126.433 389.768 125.65 387.66 125.609 387.503C125.567 387.347 125.661 385.478 125.789 384.225C125.841 383.866 125.873 383.547 125.882 383.369C126.019 382.502 126.195 381.5 126.352 380.759C126.742 379.475 126.983 378.151 127.071 376.812C127.124 375.089 128.314 374.776 128.491 374.213C128.807 373.068 129.316 371.984 129.995 371.009C130.756 370.312 131.349 369.451 131.727 368.49C131.651 367.391 131.515 366.297 131.32 365.213C130.757 363.452 130.056 361.738 129.223 360.088C128.068 359.601 126.878 359.203 125.663 358.897C124.796 358.625 124.076 358.427 124.076 358.427L121.666 357.528L110.59 358.656L110.318 358.625L106.132 358.156L101.601 358.438C101.458 357.379 101.423 356.309 101.496 355.243C101.705 354.554 103.542 353.407 103.542 353.407L106.204 350.62C106.204 350.62 107.008 347.823 107.395 346.882C107.782 345.941 108.314 344.93 108.888 343.835C109.428 342.728 110.412 342.07 110.34 340.881C110.206 339.891 110.133 338.894 110.12 337.895C110.214 337.236 111.52 335.849 111.978 335.117C112.519 334.191 112.722 333.107 112.552 332.048C112.372 330.744 115.071 330.357 115.225 328.958C115.38 327.558 116.469 327.558 116.469 327.558C116.469 327.558 117.972 325.606 117.784 324.844C117.595 324.081 116.908 322.703 115.906 323.079C114.904 323.455 113.16 323.809 113.16 323.809C113.16 323.809 107.224 324.092 106.751 323.579C106.278 323.066 102.856 324.309 101.75 324.478C100.671 324.658 100.831 325.324 100.257 325.417C99.683 325.511 98.2204 327.454 97.2401 327.778C96.2902 328.121 97.3444 329.677 96.7489 330.857C96.3834 331.783 96.2929 332.794 96.4881 333.77V335.304C95.4516 335.944 94.3782 336.523 93.2734 337.037C92.991 337.037 91.7912 338.769 91.7912 338.769L90.5697 340.586L90.6435 341.431L87.1877 341.692C85.1504 342.32 83.0804 342.835 80.9869 343.237C79.8292 343.398 78.692 343.682 77.5942 344.083L75.2664 344.605L71.4977 344.302L71.4671 342.831C71.4563 341.37 67.5095 341.87 67.04 341.307C66.5597 340.712 66.0577 341.453 66.0577 341.453C66.0577 341.453 64.9208 341.093 64.7319 340.336C64.5431 339.578 64.7319 340.336 64.7319 339.647C64.8307 338.704 65.081 337.784 65.4731 336.921C66.0272 335.272 63.7408 335.189 63.4691 334.613C63.1561 334.04 63.4692 334.613 63.1561 333.768C62.868 332.958 62.5155 332.172 62.102 331.419C61.5173 330.228 61.7152 328.923 61.3501 328.204C60.9849 327.484 61.35 328.204 60.17 327.452C59.6647 327.201 59.2412 326.812 58.9491 326.329C58.657 325.846 58.5083 325.291 58.5203 324.727C58.3404 323.275 58.5203 323.851 59.1985 322.232C59.8767 320.612 58.8855 319.882 58.8855 319.413C58.8855 318.943 58.8855 318.754 58.7057 316.416C58.5258 314.046 59.1032 314.257 59.1032 314.257L60.3624 311.019C60.3624 311.019 60.769 308.86 60.9255 308.128C60.956 307.972 61.0712 307.626 61.1863 307.189C61.5929 305.78 62.3035 303.442 62.3035 303.442C63.1973 301.861 64.3964 300.474 65.8311 299.36C68.3262 297.356 66.9374 298.128 67.022 295.248C67.1065 292.368 66.7611 293.4 67.5238 291.323C68.328 289.245 66.7611 289.245 69.3605 284.318C71.9905 279.369 72.6184 282.083 72.6184 282.083C75.4942 281.877 78.236 280.787 80.4688 278.962C85.0614 275.696 80.6991 276.018 81.3035 275.059C81.9079 274.1 84.3725 273.62 86.8046 274.159C89.1953 274.67 89.6235 272.9 95.6192 271.769C101.622 270.673 98.4579 273.208 98.4579 273.208L104.481 276.642C106.19 275.946 107.818 275.067 109.338 274.021C112.052 272.184 109.735 272.341 109.933 270.993C109.973 270.678 110.053 270.369 110.172 270.074C110.251 269.746 110.44 269.456 110.708 269.252C110.977 269.049 111.307 268.944 111.644 268.957C111.747 268.946 111.849 268.921 111.946 268.883C112.937 268.779 114.671 268.079 115.544 267.892C116.601 267.625 117.643 267.3 118.665 266.921L119.615 266.545C119.615 266.545 122.83 266.712 125.816 266.545C127.308 266.378 128.819 266.505 130.263 266.921C131.485 268.325 132.931 269.517 134.542 270.448C135.621 270.94 136.671 271.494 137.685 272.109C137.685 272.109 138.584 271.952 139.626 271.837C140.486 271.711 141.358 271.676 142.225 271.733C143.353 271.9 143.019 272.015 146.363 270.794V277.955C146.363 277.955 146.363 278.457 146.341 280.22C146.32 281.452 146.32 283.33 146.311 286.086C146.289 286.473 146.289 286.858 146.289 287.318C146.267 288.979 146.289 290.053 146.32 290.736C146.402 292.647 146.57 291.636 146.679 290.956L146.899 291.06L148.266 295.768L148.851 297.281L150.02 300.423C150.843 300.8 151.736 301.003 152.641 301.019C152.799 300.965 152.95 300.891 153.089 300.799C153.597 300.435 154.123 300.097 154.665 299.787L154.791 299.704C155.269 299.489 155.693 299.17 156.032 298.771C156.372 298.372 156.618 297.902 156.753 297.396C156.827 297.187 156.91 296.937 157.014 296.676C157.149 296.248 157.316 295.777 157.568 295.172C157.893 294.239 158.433 293.395 159.144 292.708C159.248 292.599 159.377 292.516 159.52 292.467L158.581 288.259L158.041 285.858L157.926 285.318L157.289 280.193C157.289 280.193 157.092 278.658 156.861 276.748C156.631 274.837 156.6 274.357 156.516 273.292C156.431 272.227 156.401 270.975 156.433 268.795C156.464 267.421 156.784 266.07 157.372 264.828C157.894 263.315 158.239 263.389 158.98 262.364C159.721 261.338 159.606 261.601 160.779 260.234C161.952 258.867 162.492 257.697 163.89 256.122C165.278 254.513 165.967 255.067 166.876 252.572C167.784 250.077 167.647 251.007 168.608 250.234C169.569 249.46 175.341 248.397 177.952 247.165C180.562 245.933 180.364 246.602 182.535 244.44C184.748 242.281 185.261 244.619 186.806 244.033C188.351 243.447 188.162 242.196 188.873 241.925C189.583 241.653 191.494 238.01 192.035 236.888C192.303 236.164 192.415 235.391 192.363 234.621C192.311 233.851 192.096 233.1 191.733 232.419C191.013 231.261 189.718 230.111 189.718 229.35C189.704 228.152 189.943 226.964 190.418 225.864C191.129 223.943 190.679 222.545 191.472 220.8C192.224 219.068 194.406 217.97 195.721 216.551C197.006 215.112 201.526 216.154 201.526 216.154L204.063 215.974C204.947 215.315 205.732 214.53 206.391 213.646C206.539 213.386 206.706 213.138 206.892 212.905C207.749 211.788 209.283 210.16 209.283 210.16L210.442 207.163C210.643 206.996 210.86 206.849 211.089 206.724C211.427 206.503 211.789 206.322 212.169 206.184C213.412 205.682 214.183 205.621 215.081 205.317C216.303 204.907 217.407 204.205 218.296 203.272C219.915 201.832 220.436 202.27 220.814 202.259C221.149 202.228 222.442 202.176 223.601 202.102L224.081 202.05C224.635 202.011 225.186 201.937 225.731 201.831C226.837 201.207 227.888 200.491 228.873 199.69C228.873 199.69 229.98 200.077 230.814 200.483C231.69 200.87 232.223 198.834 232.223 198.834C232.506 197.69 232.712 196.529 232.838 195.358C232.797 194.617 233.486 194.617 233.673 193.302C233.871 192.018 234.362 192.403 233.944 191.485L233.966 191.266C234.018 190.409 236.92 189.512 237.526 188.844C238.358 188.231 239.276 187.746 240.251 187.405L243.164 185.234L245.294 184.504L245.857 183.532L248.791 182.206L251.349 182.446L254.398 181.265L255.745 179.753L259.045 177.821L260.401 177.423L263.876 176.734L266.193 176.914L272.04 173.156L273.074 174.252L274.348 175.577L275.893 177.016L274.348 177.308L270.736 177.903L270.196 178.083C270.196 178.083 265.488 179.952 264.58 180.4C263.822 180.823 263.114 181.33 262.471 181.913C261.667 182.572 261.146 183.5 260.583 183.395C260.009 183.332 260.448 185.023 260.374 185.306C260.28 185.556 260.081 186.695 260.081 186.695L260.957 187.686C260.957 187.686 264.171 187.686 264.965 186.81C265.728 185.964 266.224 186.497 267.158 184.482C268.118 182.446 267.158 184.482 268.034 183.793C268.91 183.104 270.811 181.748 270.811 181.748L273.463 182.374L275.247 181.834C276.365 181.521 277.608 181.145 277.795 181.051C278.097 180.925 281.114 179.517 281.114 179.517L286.908 177.178L285.109 175.446L281.511 175.266L279.518 174.86L276.971 174.297L276.104 173.757C274.788 173.039 273.577 172.143 272.506 171.094C272.233 170.634 272.006 170.148 271.828 169.643C271.541 168.819 271.148 168.036 270.658 167.315C269.782 165.876 270.838 165.876 270.838 165.583C270.838 165.289 275.296 164.323 276.163 162.44C277.03 160.592 275.839 162.816 275.839 162.816L272.421 162.566L270 162.386L267.651 161.603L264.549 162.386L270.27 159.745L273.369 161.521L277.649 159.13L279.831 156.03L276.167 153.332L272.9 153.489L264.643 154.836L259.048 158.254L251.228 163.17L246.949 165.869L242.711 168.081L241.719 168.509C242.868 166.903 244.124 165.375 245.477 163.937C246.604 162.681 247.611 161.321 248.483 159.876C248.483 159.876 252.587 159.438 252.774 159.375C252.961 159.312 259.32 154.158 259.32 154.158L265.949 152.623C265.949 152.623 266.731 153.719 269.207 150.254C271.682 146.789 270.73 148.898 271.88 147.498C272.251 147.098 272.723 146.805 273.247 146.649C273.77 146.493 274.325 146.48 274.855 146.611L286.224 147.174L295.818 148.146L295.933 148.157L299.515 148.939L304.098 146.653L310.123 143.186L312.909 141.682L317.074 140.335C317.074 140.335 325.613 138.216 326.698 137.714C327.773 137.249 328.685 136.475 329.319 135.49C330.398 134.143 328.641 132.276 328.484 132.369C328.369 132.432 326.417 128.079 326.417 128.079L323.411 127.484L317.21 129.948L310.247 129.783L310.581 129.094C310.581 129.094 310.864 127.455 311.814 127.496C312.764 127.538 312.893 126.994 312.893 126.994L321.089 125.125L325.286 121.211L320.65 120.439H318.822C317.038 120.439 313.676 120.313 313.812 119.624C313.899 119.244 313.931 118.854 313.906 118.466C313.892 118.172 313.861 117.879 313.812 117.59C313.593 116.462 313.165 117.088 311.756 115.407C310.348 113.727 311.089 115.01 310.326 114.123C309.563 113.236 310.252 112.745 310.628 112.182C310.972 111.642 311.391 109.791 311.888 109.813C312.384 109.834 313.944 108.185 314.174 107.507C314.424 106.87 313.109 104.988 313.307 104.866C313.505 104.744 312.407 104.166 311.314 102.121C310.207 100.032 311.522 100.46 311.673 100.419C311.649 99.2046 311.747 97.9909 311.965 96.796C312.262 96.1685 312.624 95.5735 313.044 95.0205C313.044 95.0205 313.681 91.6385 313.681 91.2517C310.786 91.8751 307.961 92.7844 305.246 93.9663C304.411 94.488 304.014 96.3049 304.014 96.3049C302.218 97.2133 300.488 98.246 298.836 99.3954C297.02 100.71 297.458 100.815 297.845 100.804L294.828 101.273L291.051 101.869C290.422 102.123 289.82 102.437 289.252 102.808C287.447 102.762 285.649 102.57 283.875 102.234C283.565 101.634 283.381 100.976 283.335 100.302C283.335 99.4026 283.994 98.8827 284.202 97.2637C284.206 95.6436 284.314 94.0254 284.526 92.4192C284.913 90.9999 284.954 90.6653 285.476 90.7283C285.998 90.7912 287.356 88.807 287.356 88.4221C287.356 88.0371 288.138 86.481 288.651 84.549C289.164 82.617 285.154 83.5056 284.8 82.3903C284.482 81.5679 284.087 80.7776 283.619 80.0302C283.619 80.0302 282.45 79.1307 282.45 78.591C282.45 78.0513 277.814 76.283 277.814 76.283L273.691 78.6522L271.383 79.2476L270.736 79.0677L267.249 78.1179L264.889 77.4595L261.757 77.4289L258.793 78.8177C258.793 78.8177 257.832 81.8129 258.208 82.1061C258.615 82.4083 257.958 83.8187 257.958 83.8187L254.639 86.0943L254.68 89.6327L252.957 93.4644L249.908 94.1012C249.908 94.1012 246.098 97.0874 245.77 97.3069C245.443 97.5263 245.655 99.6346 245.655 99.6346L247.659 103.205L248.233 107.37L245.801 111.973L242.543 116.42L231.061 118.487L225.508 119.387L225.749 125.192C225.616 126.088 225.406 126.972 225.123 127.833L223.201 131.61L223.254 135.388L220.215 139.668L219.192 140.178L215.288 141.515L214.16 141.891L213.534 143.53C213.534 143.53 209.494 142.361 209.337 142.391C209.222 142.454 207.322 139.802 207.698 138.487C208.085 137.203 207.438 137.453 207.322 136.546C207.241 135.432 207.28 134.312 207.438 133.206C207.553 132.547 208.722 131.797 208.722 131.797L211.228 124.961L214.182 120.065L213.023 119.345L208.126 118.656L203.919 118.698L199.952 118.865L197.655 115.744C197.655 115.744 195.316 114.753 195.567 113.436C195.817 112.119 195.295 112.027 195.18 111.619C195.043 111.243 192.122 110.428 191.641 110.085C191.325 109.876 190.994 109.69 190.65 109.53C190.11 109.239 189.585 108.991 189.585 108.991L186.025 108.052L183.426 108.658L180.983 109.18L175.825 108.304L175.523 108.251C176.143 107.821 176.707 107.316 177.203 106.748C177.705 106.122 177.277 105.109 177.068 103.992C177.012 103.703 176.98 103.41 176.975 103.116C176.975 101.696 175.284 101.57 175.284 101.57L173.614 100.527C173.772 99.1741 174.069 97.8412 174.501 96.5495C174.762 96.0998 175.064 95.6824 175.368 95.2453C175.588 94.9323 175.786 94.6193 176.016 94.3459C176.518 93.6263 177.488 90.8704 178.115 89.9511C178.649 89.4569 179.294 89.099 179.995 88.9078C181.183 88.485 182.299 87.8832 183.305 87.1232C184.347 86.2474 185.477 85.4812 186.676 84.8368L190.936 82.3939L195.32 79.3879L196.865 77.0386L199.564 76.6104L206.759 75.4717C206.759 75.4717 208.722 73.5397 208.722 73.1655C208.722 72.7913 206.677 72.3938 206.677 72.3938C206.677 72.3938 203.079 71.9135 202.491 71.7678L202.386 71.757C201.038 71.1478 199.751 70.4104 198.544 69.5551C198.261 69.1576 198.648 67.7382 199.035 66.9665C199.422 66.1948 202.741 69.3267 202.741 69.3267L203.764 69.6612C205.414 70.2009 208.535 71.113 209.109 70.7262C209.871 70.1865 214.182 70.6848 214.182 70.6848C214.182 70.6848 216.238 69.8699 217.779 69.3482C218.22 69.1811 218.67 69.0382 219.127 68.9201C220.204 68.8054 221.242 68.456 222.169 67.8965C223.096 67.3371 223.89 66.5812 224.493 65.6821C225.945 63.124 224.347 64.126 224.347 64.126L218.042 61.2136L218.073 60.2224L218.94 58.6573L225.297 58.8966L229.794 61.5698L231.475 62.0393L239.451 59.7421L240.411 56.9969L248.564 55.7539L249.536 53.687L251.059 52.998L252.835 55.0433L263.254 52.998C263.56 51.9982 263.763 50.9699 263.86 49.929C263.86 48.8947 265.927 47.2145 266.575 47.2145C267.009 47.2515 267.418 47.4356 267.733 47.7362C267.733 47.7362 270.739 42.683 270.563 41.8178C270.516 41.5635 270.413 41.3229 270.262 41.1134C270.11 40.904 269.914 40.731 269.687 40.6071L261.412 39.74C260.852 40.3956 260.33 41.0821 259.847 41.7962C258.884 42.5768 257.828 43.236 256.704 43.7588L252.455 45.018L247.402 49.8301C245.46 50.7819 243.45 51.5883 241.388 52.2424C240.062 52.4619 240 51.7405 240 51.0731C240.302 49.8785 240.815 48.7473 241.514 47.7326C242.162 46.6982 243.873 46.2287 243.988 46.083C244.333 45.4531 244.713 44.843 245.126 44.2553C246.026 42.8773 244.124 42.4564 244.124 42.4564L241.503 43.2281L235.97 46.5795C235.08 46.5076 234.197 46.3644 233.329 46.1513C233.079 46.0056 233.675 45.072 234.133 44.4711C234.592 43.8703 235.97 41.6846 235.97 41.6846C235.97 41.6846 233.673 41.4544 232.034 41.2979C231.23 41.2241 230.571 41.1629 230.395 41.1629C229.884 41.1629 230.541 38.7722 230.541 38.7722L232.743 38.3027C232.743 38.3027 236.605 35.9119 236.386 35.4532C236.437 33.8266 236.661 32.2099 237.053 30.6303L231.187 30.1914L223.811 30.7131L221.653 35.2337L220.588 38.1984L222.529 41.6954L222.226 43.9297L221.996 45.5487L218.53 46.718L217.27 47.1353L214.932 47.8873L211.059 49.4955L206.664 54.4641L204.462 55.2466L205.203 51.4473C205.931 49.8053 206.471 48.0859 206.812 46.3222C206.853 44.9335 202.615 46.3006 202.615 46.3006L202.541 49.8391L200.704 50.6018L196.968 49.8193L190.402 49.4955L184.692 49.5998L180.171 48.2632L175.041 47.4933L170.877 47.2325L159.112 51.6686L157.852 55.1872L157.842 55.2502L154.542 54.7591L155.158 51.0533V51.0318L155.116 51.021L150.732 49.2976L145.825 50.6018L141.441 50.9778L134.718 50.3302L131.121 48.8371L131.612 47.4483L136.424 46.968L138.68 46.5093L137.447 43.6185L131.747 43.5357L125.357 42.2765L118.701 40.0009L114.702 38.3513L108.721 40.3301L105.797 41.082L102.791 39.5259L98.0621 39.5044L98.1881 38.0742L94.7953 37.0614L89.2421 38.3459L82.8326 40.2779L78.6141 40.7276L76.1191 40.8104L71.6506 41.7098L65.1259 43.6886H60.1987L56.9607 43.3019L55.7392 42.8L50.9469 40.7744L49.193 40.1592L44.2658 38.4466L37.8347 37.11L37.5523 37.0471L26.9243 35.5863L19.0217 34.8668L8.22827 34.507L3.49895 34.2156L2.63367 31.9975H-0.726685L-7.69026 30.7131L-19.2357 33.782L-23.4847 34.2102L-25.9906 34.4296L-32.9739 36.162L-40.783 37.5507L-50.596 41.7674L-63.3215 43.0932L-65.4928 43.8559L-69.1985 45.1817L-67.2197 48.2614L-67.0938 52.6886L-62.0838 52.8864L-61.7384 55.2556L-64.1922 57.0725L-72.2513 58.2832L-74.8291 58.1896L-75.1745 55.3707L-82.6795 56.6551L-84.8382 57.1948L-89.2653 58.2904L-89.3913 58.3317L-95.1478 59.8032L-96.2127 62.9567L-99.091 66.2235L-95.673 65.7954L-91.7371 65.3259L-89.868 65.3673L-87.2164 65.45L-84.304 66.9647L-78.7705 65.2935L-74.1869 64.7089L-73.7911 66.2235L-77.058 66.4844L-79.7563 69.1468L-79.9758 69.2925L-81.3016 70.2945L-83.7229 72.9353L-90.6343 73.2177L-92.3559 73.2807C-92.3559 73.2807 -92.5358 73.3022 -93.1384 73.3328C-93.9101 73.3634 -95.4464 73.4066 -98.4632 73.4066L-99.0784 72.1851L-99.0892 72.1545L-99.2241 72.2283L-101.689 73.5019L-102.106 73.7214L-103.651 74.6604L-106.709 76.5493L-108.192 77.9686L-113.036 80.4133L-118.224 81.2588C-119.087 82.0274 -119.899 82.8506 -120.656 83.7233C-121.103 84.7042 -121.419 85.7397 -121.595 86.803C-122.038 87.6188 -122.634 88.3419 -123.349 88.9329L-123.108 91.3867C-123.108 91.3867 -122.043 91.3237 -121.219 91.2517C-120.904 91.2398 -120.59 91.2013 -120.28 91.1366C-119.874 91.0017 -117.681 89.6975 -117.681 89.6975L-112.586 88.5066L-109.037 87.5046C-109.037 87.5046 -113.421 90.3541 -114.038 91.0017C-115.441 91.9062 -116.923 92.6817 -118.465 93.3187C-118.465 93.3187 -122.203 96.5333 -122.464 96.9507C-122.725 97.3105 -120.485 98.6003 -120.485 98.6003C-120.485 98.6003 -115.86 96.2941 -115.256 96.9201C-114.064 97.8154 -112.812 98.628 -111.509 99.3522C-111.509 99.3522 -105.673 95.9073 -104.65 95.6465C-103.626 95.3856 -101.232 97.7134 -101.232 97.7134L-99.8231 97.5335L-96.2433 97.0748L-99.636 100.113L-103.854 103.912L-113.157 107.525L-119.253 110.489L-126.449 112.054C-130.105 113.132 -133.84 113.928 -137.618 114.434C-141.241 114.643 -138.6 114.434 -139.718 114.497C-140.598 114.455 -141.453 114.189 -142.202 113.726L-145.699 115.01C-145.699 115.01 -146.042 115.114 -146.586 115.271C-148.385 115.845 -152.162 116.951 -152.641 116.951C-153.299 116.951 -157.068 117.338 -157.068 117.338L-159 119.937L-154.49 120.063L-150.691 118.592L-149.511 118.052C-147.924 117.322 -145.168 116.048 -144.521 115.787C-141.157 115.713 -137.792 115.853 -134.447 116.204L-127.839 114.909L-120.644 111.642L-107.855 107.643L-99.3266 104.188L-93.8975 101.995L-93.1258 101.649L-86.4033 98.6542L-85.8636 96.7546L-85.0181 95.3029L-82.2316 93.7576L-78.4935 93.5076L-77.2504 92.4732L-73.9512 89.8846L-73.0644 89.1956L-67.8961 87.6917L-64.0968 87.0963L-60.2867 85.2488C-60.2867 85.2488 -57.6352 84.0795 -57.4373 84.0057C-57.2394 83.932 -55.0465 83.2538 -54.6076 83.0451C-54.1381 82.8652 -50.7237 82.5342 -50.3999 82.3454C-50.0761 82.1565 -49.3871 82.9408 -49.3871 82.9408C-50.1086 83.6881 -50.8797 84.3858 -51.6952 85.0293C-52.2964 85.4833 -52.84 86.0089 -53.3142 86.5944C-54.1381 87.4938 -54.9224 86.7203 -55.1311 86.7203C-55.582 86.9169 -56.0123 87.158 -56.4155 87.4399C-56.4155 87.4399 -58.9106 87.8788 -59.515 87.8788C-60.1194 87.8788 -63.1272 88.6829 -63.6525 88.6829C-64.4266 88.8678 -65.1791 89.1337 -65.8975 89.4762C-65.8975 89.4762 -67.5165 91.3129 -67.7144 91.5126C-68.2417 91.8357 -68.8157 92.0754 -69.4162 92.2231C-69.7184 92.2861 -69.9558 93.3295 -70.2203 93.6317V93.6533C-70.5549 94.123 -70.8515 94.6187 -71.1072 95.1356L-69.1859 94.6769V94.6661L-66.3257 93.9465C-66.3257 93.9465 -62.7279 92.9121 -61.5856 92.5991C-60.4468 92.2555 -59.112 91.8472 -57.8078 91.4406L-54.6975 90.4908L-52.2024 89.7281C-52.2024 89.7281 -51.9614 88.6847 -51.8894 88.4688C-51.3729 87.9563 -50.8256 87.4757 -50.2506 87.0297C-49.6607 86.555 -49.0074 86.1651 -48.3096 85.8712C-47.54 85.6533 -46.7369 85.5789 -45.9404 85.6517L-42.7348 85.3693H-40.157C-40.157 85.3693 -36.2839 87.3103 -35.9079 87.6863C-35.5625 88.0623 -34.2583 89.9511 -34.2583 89.9511L-30.5939 90.525H-27.5142C-27.5142 90.525 -21.1461 92.1224 -20.959 92.09C-20.7504 92.09 -19.9462 92.8006 -19.9462 92.8006L-18.7661 94.1678L-16.3538 96.2437C-16.3538 96.2437 -15.7692 98.3628 -15.6864 98.6758C-15.559 99.2024 -15.2711 99.6764 -14.8625 100.032C-14.5247 100.196 -14.158 100.292 -13.7832 100.315C-13.7832 100.315 -12.3009 100.241 -12.2271 99.775C-12.1573 99.3717 -12.1259 98.9627 -12.1336 98.5535C-11.9526 97.8505 -11.6334 97.1907 -11.1945 96.6125C-10.8923 96.4668 -10.6548 97.458 -10.6548 97.458L-8.46199 99.1813L-8.67067 99.9638L-7.07323 100.57C-6.58585 100.04 -6.12938 99.4817 -5.70607 98.8989C-5.36249 98.388 -5.70605 97.2079 -5.58014 96.4344C-5.49925 96.0364 -5.34361 95.6573 -5.12143 95.3173C-4.5062 94.8548 -3.82285 94.4907 -3.09586 94.2379C-2.76697 94.1989 -2.43532 94.1887 -2.10466 94.2073C-1.78497 94.4231 -1.45409 94.6219 -1.11345 94.8028C-0.737473 95.0115 -0.852615 98.0408 -0.852615 98.2369C-0.812164 98.8734 -0.819382 99.512 -0.874191 100.147C-1.25751 100.743 -1.5995 101.364 -1.89778 102.006L-3.44305 104.668L-4.29933 105.994L-4.09067 109.919L-3.71469 111.788L-1.76286 113.729L-2.63893 116.485L-3.44305 118.25L-3.88197 120.067L-3.44305 122.585L-2.33672 123.88L-1.63693 125.228L-1.89778 126.899L-1.87621 129.196L-0.976746 131.294L-1.41568 133.298L-1.49841 134.258C-1.6022 134.784 -1.73494 135.303 -1.896 135.814C-2.01526 136.144 -2.18388 136.454 -2.39609 136.734L-2.28094 139.364L-1.29875 141.985L-0.00354004 143.362C0.0465851 143.951 0.0254517 144.544 -0.0665131 145.127C-0.170837 145.262 1.2899 146.207 1.2899 146.207L2.28108 147.772L2.2505 149.619L3.50974 151.686L3.38382 153.314L2.27748 156.405L1.07761 157.844L-0.437073 161.936L-1.13683 162.751L-3.67329 165.629L-6.38785 166.036L-3.55818 164.658L-3.32791 162.945L-3.0347 162.163L-2.40866 161.452L-1.84563 160.805L-4.43425 159.438L-5.78162 158.738L-9.04845 157.934L-10.698 159.438L-11.2719 162.676L-11.5022 167.353L-13.006 169.43L-13.8299 171.069H-11.6479L-11.1981 172.329L-14.9668 172.955L-17.0751 174.865L-20.2808 179.959L-24.4363 185.586L-25.96 187.121L-27.5682 188.781L-30.9286 192.248L-32.8282 198.407L-34.3932 202.5L-36.0321 205.036L-37.4712 206.008L-38.6099 206.947L-38.7142 208.783L-37.8148 210.82L-37.9605 212.28L-37.9911 212.75L-38.9931 216.017L-39.0866 218.073L-39.2431 220.318L-38.376 222.824L-37.7698 223.167L-36.5591 220.318L-35.066 221.038L-35.8072 221.937L-36.1832 224.635L-36.3091 225.511L-36.5394 226.722L-36.9675 228.881L-38.7844 230.86V233.407L-36.8218 237.76L-36.1958 241.268L-37.5324 243.387L-37.3974 243.366L-36.041 243.116L-34.3609 243.313L-32.8786 243.493L-31.1246 245.415L-30.4141 246.167L-28.6709 245.947L-27.919 247.482L-26.9386 247.827L-25.3411 249.626L-24.287 253.112L-24.3284 258.018L-24.0567 263.299L-23.0763 267.09L-22.7003 270.18L-21.9286 273.093L-19.7879 275.775L-17.8091 278.187L-17.2551 280.912L-18.0268 282.927L-19.286 284.107L-21.2073 284.316L-23.2004 284.472L-21.2379 288.126L-15.7997 290.204L-15.1108 292.021L-14.0314 293.503L-13.9163 293.659L-12.3188 294.129L-11.5148 295.568L-11.5975 297.885L-12.997 300.693L-12.657 303.118L-11.1856 305.331L-5.3499 309.591L-4.07625 312.555L-3.71648 314.592L-1.15843 311.783L-1.88879 309.206L-4.89476 307.202L-7.25491 293.568L-8.55014 292.211L-10.0109 286.313C-10.0109 286.313 -11.2845 284.893 -11.3672 284.705C-11.45 284.516 -11.4086 281.144 -11.4086 281.144L-14.4668 277.104L-15.6468 272.636L-16.3142 268.523L-16.1469 263.898L-15.1143 259.21L-12.5563 260.954L-9.72664 261.445L-9.00705 262.164L-6.56416 263.355L-6.78362 264.816L-7.28552 270.349L-4.90555 279.295L-2.92676 283.283L-0.483841 283.733V285.059L-0.124069 287.856L1.87991 288.639L2.64267 290.643H3.92708L4.81395 292.427L3.06001 295.444L4.5531 298.211L8.93704 300.549V303.535L11.1911 306.234L15.9204 312.832L16.5572 314.899L18.7501 322.124L17.8308 326.216L18.2176 327.781L18.4892 328.794L17.9154 328.877L16.2658 329.159L16.8918 332.365L17.1832 333.91L21.202 337.344L25.2423 341.854L28.8401 343.065L33.476 344.38L36.3992 348.003L42.5694 351.886L47.9554 354.507L53.3629 357.107L58.8009 359.237L64.3956 358.015L67.245 356.074L70.5029 355.468L74.4497 357.076L79.0009 362.234L83.0826 367.965L88.7726 370.721L92.7914 371.525L98.8878 373.947L100.735 374.646H103.48L106.843 373.894L107.742 375.022L107.492 377.246L112.765 385.107L115.01 388.426L114.675 392.977L115.353 393.979L116.303 395.379L117.681 395.505V392.986L120.678 395.825L122.797 397.057L124.562 398.383L124.666 398.696L125.814 402.465L127.568 402.224L128.726 404.656L130.741 404.343L136.033 405.888L138.633 407.903L140.961 411.5L143.79 410.153L145.273 409.047L142.61 405.602L143.247 404.318L146.055 403.387L147.726 401.664L149.705 400.349L154.674 402.74L157.262 405.046L155.78 406.413L158.829 417.333L158.29 422.369L158.791 428.257L159.074 431.42L156.079 440.157L152.612 440.877L149.95 447.777L143.864 450.272L142.914 453.206L141.723 456.777C141.723 456.777 139.396 460.881 138.863 460.942C138.331 461.003 139.207 469.217 139.207 469.217L141.441 470.96L144.29 468.441L144.165 473.223L140.229 478.139L138.192 481.136L138.516 487.369L138.892 491.687L144.109 497.542L149.349 503.452L160.216 525.74L164.685 531.45L168.067 536.471V541.22L172.744 547.755L181.679 553.143L183.318 554.156L196.916 563.172L199.974 566.252L202.03 568.297L205.381 577.212L205.684 577.975L206.29 590.074L206.65 597.319L206.691 605.984L207.986 609.836L208.269 614.419L208.247 614.732L206.713 634.128L209.148 639.514L207.916 642.437L208.815 646.112L211.217 651.561L212.365 660.007L211.645 671.011L210.873 682.598L209.004 685.562L213.243 694.634L214.464 699.132V706.971L220.915 711.763L223.399 710.948L224.162 710.677L223.838 714.32L225.299 716.68L224.955 721.587L225.414 722.819L226.447 725.836L230.08 728.842L229.048 731.922L229.863 734.365L229.632 735.691L229.048 739.199L229.1 743.145L230.539 747.79L233.221 749.229L234.588 752.131V756.745L236.103 760.64L238.933 764.543L239.059 764.723L239.904 766.132L240.739 768.981L242.169 769.881V771.78L243.443 772.991L244.851 774.358L245.623 776.227L248.442 778.075L248.892 780.435L250.082 780.717L251.304 781.939H251.326L252.829 781.95L253.31 782.773L260.565 784.986H262.047L259.878 780.393V778.954L263.218 777.875L264.69 776.841V775.098L265.003 775.202L265.389 775.348C265.389 775.348 268.156 776.465 268.104 775.963C268.063 775.493 268.104 775.963 267.924 775.68C267.44 775.139 266.987 774.571 266.568 773.979C266.129 773.259 265.848 773.561 265.701 773.561C265.378 773.505 265.065 773.403 264.771 773.259C264.64 773.209 264.522 773.13 264.425 773.029C264.245 772.716 264.362 772.09 264.143 771.275C263.893 770.451 264.143 771.275 263.767 770.753C263.38 770.19 263.297 770.305 263.078 769.908C262.673 769.133 262.307 768.339 261.982 767.528L261.971 767.465C261.867 767.105 262.493 766.161 262.597 765.752C262.618 765.541 262.628 765.328 262.628 765.115C262.639 764.867 262.731 764.629 262.889 764.437L262.919 764.426C263.279 763.946 262.93 763.603 263.087 763.362C263.261 763.048 263.388 762.71 263.463 762.36C263.432 762.297 264.245 762.068 264.486 761.868C264.727 761.669 264.956 761.816 265.154 761.671C265.352 761.525 265.299 761.311 265.299 761.044V760.053C265.299 759.354 265.154 759.417 265.008 758.936C264.862 758.456 264.706 758.623 264.664 758.049C264.623 757.476 264.821 757.382 264.844 756.954C264.868 756.526 265.429 756.339 265.618 756.16C266.112 755.874 266.571 755.531 266.985 755.137C267.396 754.736 267.738 754.271 267.998 753.759C268.259 753.164 269.126 753.018 269.7 752.548C270.273 752.079 269.52 751.901 269.417 751.17C269.39 750.737 269.212 750.328 268.915 750.012C268.735 749.792 268.602 749.855 268.735 749.677C268.87 749.532 269.342 748.747 269.342 748.747L269.457 747.358L268.109 745.887L267.285 745.459L265.051 744.559C265.051 744.559 264.06 744.183 263.495 744.02C262.932 743.8 261.741 743.278 261.502 743.174C261.263 743.07 260.511 743.07 260.635 742.715C260.759 742.361 258.87 742.1 258.714 741.839C258.557 741.578 258.672 741.6 258.568 740.963C258.483 740.285 258.028 739.262 258.028 738.614C258.028 737.925 257.715 737.445 257.798 737.09C257.931 736.626 258.106 736.175 258.32 735.743C258.614 735.217 258.968 734.727 259.374 734.282C260.011 733.541 261.462 733.217 261.921 732.926C262.824 732.773 263.744 732.745 264.655 732.843L264.238 731.13L265.69 729.992L265.836 727.768L264.301 725.545C264.301 725.545 264.134 723.937 264.166 723.467C264.198 722.998 264.26 722.987 264.542 722.309C264.897 721.508 265.376 720.768 265.961 720.116C266.483 719.531 265.816 720.042 265.816 720.042C265.401 720.039 264.99 719.957 264.605 719.801C264.323 719.621 263.842 719.384 263.718 719.321C263.551 719.299 263.375 718.475 263.375 718.475L265.202 718.225C265.202 718.225 267.071 718.088 267.228 718.132C267.539 718.363 267.832 718.618 268.104 718.894C268.104 718.894 269.701 719.625 269.973 719.468C270.075 719.006 270.247 718.563 270.484 718.153C270.734 717.86 269.962 716.984 269.836 716.693C269.65 716.389 269.539 716.046 269.512 715.69C269.504 715.611 269.518 715.531 269.554 715.46C269.793 715.1 269.074 714.604 269.074 714.604L267.8 714.05C267.8 714.05 266.839 714.102 266.694 714.102C266.548 714.102 266.005 714.604 266.005 714.604L266.339 715.575L266.879 715.649L267.005 716.088L267.235 716.86L266.62 717.309L265.044 717.247L263.375 716.955L262.644 716.788L262.049 716.662C261.808 716.726 261.556 716.729 261.314 716.673C261.072 716.617 260.847 716.501 260.66 716.338C259.971 715.753 260.262 714.606 260.262 713.228C260.464 712.037 260.597 710.836 260.66 709.63C260.586 707.5 261.997 708.971 261.997 708.971C263.034 709.321 264.111 709.542 265.202 709.63C265.965 709.547 267.802 709.547 267.802 709.547C268.64 709.386 269.436 709.052 270.139 708.567C270.842 708.081 271.436 707.456 271.883 706.728C273.522 704.233 271.968 704.787 272.063 703.942C272.159 703.096 270.477 701.949 270.727 701.279C270.977 700.61 270.227 699.578 269.851 698.326C269.475 697.074 269.851 696.917 269.851 696.917C269.851 696.917 270.227 695.32 270.613 695.215C270.907 695.152 271.563 695.059 271.909 695.007L272.148 694.996C273.085 695.48 274.064 695.882 275.071 696.196C276.486 696.344 277.915 696.305 279.32 696.081C280.622 695.798 281.946 695.634 283.278 695.589L286.064 694.462L287.863 693.699C287.863 693.699 289.856 692.593 290.171 692.384C290.649 691.953 291.092 691.485 291.497 690.984C291.758 690.625 293.699 686.487 293.699 686.487L294.314 680.453L291.436 679.315C291.436 679.315 290.768 676.224 291.256 675.65C291.743 675.077 289.2 673.531 289.115 672.653C289.031 671.776 287.676 671.004 287.676 671.004L284.357 669.813L282.896 669.135L281.268 666.818L281.644 666.003L286.978 667.526L292.375 670.156L296.958 671.002L300.434 672.067C300.434 672.067 304.016 669.687 303.942 668.957C303.827 668.257 307.982 664.979 307.595 664.364C307.236 663.706 309.193 660.282 309.193 660.282L311.27 654.592C311.583 654.057 311.928 653.541 312.303 653.047C313.205 652.086 314.222 651.241 315.331 650.529C315.841 650.187 316.298 649.771 316.687 649.296C317.681 647.783 318.501 646.161 319.13 644.463C319.498 643.383 319.781 642.277 319.975 641.153C320.31 639.701 320.686 638.21 321.112 636.873C321.49 635.7 322.074 634.604 322.836 633.635C323.931 631.903 324.548 631.798 324.548 631.798C325.329 629.616 325.906 627.365 326.27 625.076C326.276 624.655 326.248 624.234 326.187 623.817C326.113 623.295 325.968 622.96 325.728 621.813C325.352 619.985 324.079 619.005 324.392 618.305C324.735 617.637 323.651 616.583 323.651 616.583C323.651 616.583 323.494 612.564 323.42 612.48C324.494 611.78 325.523 611.012 326.5 610.183C327.04 609.463 327.148 609.661 328.035 608.637C328.88 607.603 331.334 606.883 332.679 605.505C334.057 604.18 336.552 602.541 337.22 601.841C337.887 601.141 338.628 601.83 339.861 599.805C341.093 597.779 343.368 597.925 343.921 597.488C344.473 597.051 348.368 597.968 349.339 597.581C350.349 597.297 351.39 597.139 352.438 597.112C352.438 597.112 355.831 596.768 356.52 596.032C356.793 595.656 356.985 595.228 357.083 594.773C357.218 594.304 357.324 593.906 357.709 593.802C358.871 593.214 359.997 592.559 361.082 591.839C361.082 591.839 361.73 589.449 361.73 589.083C361.73 588.686 362.189 585.095 362.888 584.604C363.63 584.124 363.191 583.345 363.484 583.07C363.786 582.757 366.182 581.024 366.182 581.024L368.897 577.453L369.199 574.239L367.623 570.627L367.686 568.894L367.738 567.255C367.738 567.255 368.238 566.462 368.729 565.658C369.116 565.021 369.481 564.354 369.586 564.176C370.271 561.825 370.808 559.433 371.194 557.014C371.294 555.464 371.304 553.91 371.224 552.359C371.06 550.719 370.767 549.095 370.348 547.502C370.151 546.635 369.586 544.244 369.586 544.244L369.388 539.869L370.536 536.271L373.313 534.382L375.578 531.72C375.578 531.72 377.76 526.323 377.864 526.062C377.938 525.801 379.472 523.108 379.649 522.722C379.825 522.335 380.692 522.439 380.692 522.439C380.692 522.439 383.103 519.683 383.313 519.505C383.418 519.39 384.806 517.346 385.882 515.736C386.571 514.702 387.125 513.867 387.177 513.758C387.303 513.518 390.383 506.148 390.383 506.148L391.165 500.919L390.915 497.922C390.915 497.922 389.6 493.792 389.433 493.155Z" fill="#D4D4D4" fill-opacity="0.16"/>
<path opacity="0.491" d="M183.935 344.352L186.795 343.726L191.681 343.57L192.672 343.539L194.708 343.719L195.576 347.644L197.977 345.64L198.707 343.595L199.146 342.217H201.192L201.798 342.958L202.622 343.669L204.376 342.217H210.231L211.264 343.877L213.063 343.01C213.063 343.01 213.602 340.954 213.7 340.296C213.797 339.637 212.102 339.263 212.102 339.263L208.74 338.105L206.736 337.229L207.875 336.149C207.189 335.585 206.422 335.128 205.599 334.793C204.91 334.71 204.095 334.48 203.897 333.758C203.717 333.069 201.652 333.758 201.652 333.758L197.112 333.399L195.964 334.233L193.365 334.014L191.015 333.764L189.846 332.94H188.114L187.518 334.559L189.355 335.458L189.742 335.802L190.821 336.752L190.695 339.581L191.595 341.272L191.114 341.388L190.035 341.659L187.516 341.242H184.678L182.213 341.272L180.825 342.62L181.868 343.32L183.935 344.352Z" fill="#D4D4D4" fill-opacity="0.16"/>
<path opacity="0.491" d="M165.561 331.44C165.561 331.44 164.661 332.63 164.496 332.818C164.33 333.005 163.629 332.933 163.629 332.933L167.406 333.757L171.645 333.131L173.544 332.974L173.972 332.933H178.702L181.636 332.661L183.129 332.274L183.859 331.283L182.294 329.905L179.445 329.133L177.286 328.694L177.036 328.632L176.18 327.128L176.388 326.304L173.778 326.565C172.998 326.574 172.217 326.543 171.44 326.471C171.1 326.403 170.754 326.372 170.407 326.377H170.177C169.464 325.733 168.82 325.015 168.255 324.237C168.047 323.756 165.557 322.296 165.154 321.815C164.768 321.486 164.292 321.282 163.787 321.231L161.089 318.966L158.083 319.029L155.204 316.151L153.868 314.992L149.943 313.364L148.126 313.019L147.061 312.799L143.69 313.353L143.648 313.364L141.79 313.544L138.721 313.364H136.404L134.807 315.442L133.231 316.422L131.351 318.401L130.036 320.081V321.161L131.175 322.299L132.511 320.754L135.184 319.157L138.525 315.816H144.443L146.113 317.075L146.091 317.117L143.393 317.732L144.04 318.234H145.607L150.252 318.736H152.051V320.781L154.337 321.972L159.16 322.285L161.979 322.787V324.832L162.24 327.16L163.159 328.162L165.152 328.36H167.96L168.828 329.749L167.554 331.22L165.561 331.44Z" fill="#D4D4D4" fill-opacity="0.16"/>
<path opacity="0.491" d="M1321.57 707.422L1318.36 708.592C1317.76 708.822 1315.74 709.239 1315.74 709.239C1315.74 709.239 1315.54 709.228 1315.24 709.198C1314.58 709.134 1313.92 708.99 1313.3 708.77C1312.6 708.258 1311.97 707.658 1311.43 706.985L1310.11 705.787H1309.41C1308.97 705.815 1308.53 705.881 1308.1 705.985C1307.29 706.165 1307.2 706.622 1307.2 706.622C1306.94 707.626 1306.75 708.648 1306.64 709.68C1306.64 710.504 1306.74 711.56 1306.74 711.56V714.546L1305.33 716.852C1304.94 717.287 1304.57 717.743 1304.23 718.219C1304.15 718.417 1303.96 720.58 1303.96 720.58L1304.63 721.875L1306.83 722.981H1309.42L1310.7 720.884L1312.05 721.26L1314.27 721.74L1316.56 720.644L1317.83 717.888L1318.33 716.584L1319.99 714.548L1321.78 714.976V713.933L1323.05 711.563L1325.4 707.877L1323.4 707.001L1321.57 707.422Z" fill="#D4D4D4" fill-opacity="0.16"/>
<path opacity="0.491" d="M1447.89 709.728L1447.51 708.089L1449.14 705.949L1450.04 704.842H1447.5C1447.5 704.842 1445.01 706.722 1444.79 707.035C1444.61 707.328 1443.29 709.874 1443.29 709.874L1442.94 710.176L1440.7 712.024C1440.7 712.024 1437.66 713.517 1437.41 713.695C1437.16 713.873 1433.9 716.879 1433.9 716.879L1431.9 719.613C1431.9 719.613 1425.12 721.43 1424.68 721.576C1423.04 722.407 1421.45 723.338 1419.92 724.362C1418.07 725.044 1416.15 725.499 1414.2 725.719C1412.81 726.449 1411.49 727.316 1410.27 728.307C1410.27 728.307 1407.83 730.185 1407.58 730.426C1406.34 730.795 1405.09 731.088 1403.82 731.302C1402.88 731.836 1401.97 732.425 1401.1 733.067C1400.65 733.545 1400.23 734.054 1399.84 734.591L1397.37 736.699C1396.57 737.291 1395.74 737.839 1394.88 738.338L1394.22 739.862L1397.21 740.092L1398.34 739.831L1400.34 741.47L1400.59 741.763L1401.59 742.943L1406.34 742.526L1411.47 738.779L1415.69 737.34C1415.69 737.34 1417.85 735.712 1418.41 735.262C1418.66 735.053 1418.97 734.76 1419.29 734.488C1419.5 734.311 1419.69 734.12 1419.87 733.914C1421.04 732.792 1422.1 731.566 1423.04 730.25C1423.4 729.564 1423.87 728.946 1424.45 728.422L1428.13 725.904L1432.17 724.965L1434.79 725.904L1436.17 725.058L1436.55 722.981L1436.99 722.135L1438.24 721.216L1441.24 719.777L1444.74 717.96L1447.68 716.06L1449.75 714.276C1449.75 714.276 1450.65 713.211 1450.88 712.919C1450.97 712.783 1451.15 712.428 1451.35 712.043C1451.62 711.574 1451.89 711.083 1451.89 711.083V708.462L1449.95 709.233L1447.89 709.728Z" fill="#D4D4D4" fill-opacity="0.16"/>
</g>
</g>
</svg>
