<svg width="14" height="12" viewBox="0 0 14 12" fill="none" xmlns="http://www.w3.org/2000/svg">
<path d="M0.04375 2.11063C0.131966 1.72409 0.348823 1.37896 0.658806 1.13177C0.968789 0.884578 1.35352 0.749973 1.75 0.75H12.25C12.6465 0.749973 13.0312 0.884578 13.3412 1.13177C13.6512 1.37896 13.868 1.72409 13.9563 2.11063L7 6.36225L0.04375 2.11063ZM0 3.10987V9.32587L5.07762 6.21263L0 3.10987ZM5.91587 6.72625L0.167125 10.2499C0.309161 10.5494 0.533336 10.8024 0.813559 10.9794C1.09378 11.1565 1.41853 11.2503 1.75 11.25H12.25C12.5814 11.2501 12.906 11.156 13.1861 10.9788C13.4662 10.8016 13.6902 10.5485 13.832 10.249L8.08325 6.72538L7 7.38775L5.91587 6.72538V6.72625ZM8.92237 6.2135L14 9.32587V3.10987L8.92237 6.21263V6.2135Z" fill="white"/>
</svg>
