
<svg width="14" height="19" viewBox="0 0 14 19" fill="none" xmlns="http://www.w3.org/2000/svg">
    <path d="M7.08452 0.606445C5.26245 0.606445 3.51491 1.3302 2.22651 2.6186C0.93811 3.907 0.214355 5.65454 0.214355 7.47661C0.214355 12.1309 7.08452 18.2164 7.08452 18.2164C7.08452 18.2164 13.9545 12.1309 13.9545 7.47661C13.9545 5.65454 13.2308 3.907 11.9424 2.6186C10.654 1.3302 8.9066 0.606445 7.08452 0.606445ZM7.08452 11.7451C6.24005 11.7451 5.4145 11.4948 4.71235 11.0256C4.01019 10.5565 3.46288 9.88961 3.13971 9.10942C2.81655 8.32923 2.73209 7.47058 2.89684 6.64233C3.06159 5.81409 3.46814 5.05348 4.06527 4.45634C4.6624 3.85921 5.4233 3.45252 6.25155 3.28777C7.0798 3.12302 7.9383 3.20762 8.71849 3.53079C9.49868 3.85395 10.1654 4.40098 10.6346 5.10313C11.1037 5.80528 11.3542 6.63098 11.3542 7.47545C11.3542 8.60785 10.9044 9.69383 10.1036 10.4946C9.3029 11.2953 8.21693 11.7451 7.08452 11.7451Z" fill="white"/>
    <path d="M7.0813 0.606445V3.20696C7.64793 3.19749 8.21068 3.30072 8.73692 3.51102C9.26317 3.72131 9.74242 4.03427 10.1465 4.43163C10.5505 4.829 10.8714 5.30283 11.0905 5.82549C11.3095 6.34815 11.4223 6.90932 11.4223 7.47603C11.4223 8.04274 11.3095 8.60362 11.0905 9.12628C10.8714 9.64894 10.5505 10.1228 10.1465 10.5201C9.74242 10.9175 9.26317 11.2305 8.73692 11.4407C8.21068 11.651 7.64793 11.7546 7.0813 11.7451V18.2153C7.0813 18.2153 13.9515 12.1298 13.9515 7.47545C13.9512 5.65358 13.2271 3.90645 11.9387 2.61831C10.6504 1.33017 8.90317 0.606445 7.0813 0.606445V0.606445Z" fill="white"/>
</svg>
