<svg width="61" height="61" viewBox="0 0 61 61" fill="none" xmlns="http://www.w3.org/2000/svg">
<path d="M30 60.488C46.5685 60.488 60 47.0418 60 30.455C60 13.8681 46.5685 0.421875 30 0.421875C13.4315 0.421875 0 13.8681 0 30.455C0 47.0418 13.4315 60.488 30 60.488Z" fill="white"/>
<path d="M30.0015 60.488C13.4313 60.488 0.00146484 47.0434 0.00146484 30.455C0.00146484 13.8665 13.4313 0.421875 30.0015 0.421875C46.5717 0.421875 60.0015 13.8665 60.0015 30.455C59.9759 47.0307 46.5589 60.4625 30.0015 60.488ZM30.0015 3.00344C14.861 3.00344 2.58019 15.2978 2.58019 30.455C2.58019 45.6121 14.861 57.9065 30.0015 57.9065C45.1419 57.9065 57.4227 45.6121 57.4227 30.455C57.3972 15.2978 45.1291 3.01622 30.0015 3.00344Z" fill="#FF4521"/>
<path d="M46.8389 25.101C46.8262 25.0626 46.8006 25.0243 46.7751 24.9859C46.7495 24.922 46.7113 24.8709 46.673 24.807L42.4091 19.5416C42.1921 19.2605 41.8602 19.1071 41.5028 19.1199H18.4474C18.1027 19.1199 17.7708 19.2732 17.5538 19.5416L13.29 24.8198C13.2645 24.8581 13.2389 24.9093 13.2261 24.9476C13.1879 24.9987 13.1496 25.0626 13.124 25.1265C13.0985 25.216 13.073 25.3054 13.0602 25.4077C13.0602 25.446 13.0347 25.4716 13.0347 25.5099V25.5227C13.0347 25.6633 13.0602 25.8039 13.124 25.9317C13.1368 25.9572 13.1496 25.9828 13.1623 25.9956C13.2006 26.085 13.2517 26.1745 13.3155 26.2512L29.107 43.7727H29.1198C29.2091 43.8621 29.2985 43.9388 29.4134 43.9899C29.4645 44.0155 29.5155 44.0411 29.5793 44.0666C29.707 44.1178 29.8347 44.1433 29.9623 44.1433H29.9751C30.1155 44.1433 30.2432 44.1178 30.3709 44.0539C30.4092 44.0411 30.4474 44.0155 30.4857 44.0027C30.6006 43.9516 30.7028 43.8749 30.7921 43.7855C30.8049 43.7727 30.8049 43.7727 30.8176 43.7727L46.6092 26.2384C46.9155 25.9445 46.9921 25.4972 46.8389 25.101ZM23.4772 26.6346H36.4985L29.9879 40.386L23.4772 26.6346ZM25.5708 24.3853L29.9879 21.5737L34.4049 24.3853H25.5708ZM20.9496 26.6346L25.6219 36.5008L16.724 26.6218L20.9496 26.6346ZM39.0262 26.6346H43.2389L34.341 36.5008L39.0262 26.6346ZM38.6304 24.3853L33.8687 21.3692H40.9666L43.4049 24.3853H38.6304ZM26.107 21.3692L21.3453 24.3853H16.5709L19.0091 21.3692H26.107Z" fill="#FF4521"/>
</svg>
