<svg width="60" height="61" viewBox="0 0 60 61" fill="none" xmlns="http://www.w3.org/2000/svg">
<path d="M30 60.5137C46.5685 60.5137 60 47.0674 60 30.4805C60 13.8936 46.5685 0.447266 30 0.447266C13.4315 0.447266 0 13.8936 0 30.4805C0 47.0674 13.4315 60.5137 30 60.5137Z" fill="white"/>
<path d="M30 60.5137C13.4298 60.5137 0 47.069 0 30.4805C0 13.8919 13.4298 0.447266 30 0.447266C46.5702 0.447266 60 13.8919 60 30.4805C59.9745 47.0562 46.5574 60.5009 30 60.5137ZM30 3.02884C14.8596 3.02884 2.57872 15.3233 2.57872 30.4805C2.57872 45.6377 14.8596 57.9321 30 57.9321C45.1404 57.9321 57.4213 45.6377 57.4213 30.4805C57.3957 15.3233 45.1277 3.04162 30 3.02884Z" fill="#69D548"/>
<path d="M46.2117 27.107C46.199 27.0687 46.1735 27.0304 46.1479 26.992C46.1224 26.9281 46.0841 26.877 46.0586 26.8131L41.9735 21.6627V25.2795L42.8416 26.3786H38.1437L33.4841 23.3497H36.5863L36.5735 21.126H18.3692C18.0245 21.126 17.7054 21.2793 17.4884 21.5477L13.3011 26.8259C13.2501 26.9281 13.1863 27.0304 13.1352 27.1326C13.1097 27.2221 13.0842 27.3115 13.0842 27.4138C13.0714 27.4521 13.0714 27.4904 13.0586 27.516V27.5288C13.0586 27.6694 13.0841 27.8099 13.148 27.9377C13.1607 27.9633 13.1735 27.9761 13.1863 28.0016C13.2246 28.0911 13.2756 28.1806 13.3394 28.2572L28.8373 45.7787H28.8501C28.9395 45.8682 29.0288 45.9449 29.1437 46.0088C29.1948 46.0343 29.2458 46.0599 29.3097 46.0854C29.4373 46.1366 29.565 46.1621 29.6926 46.1621H29.7054C29.8458 46.1621 29.9735 46.1238 30.1011 46.0726C30.1394 46.0599 30.1777 46.0471 30.216 46.0215C30.3309 45.9704 30.4331 45.8937 30.5224 45.8043C30.5352 45.7915 30.5352 45.7915 30.5479 45.7787L46.0458 28.2445C46.2884 27.9505 46.3649 27.5032 46.2117 27.107ZM34.0203 26.3914H25.3395L29.6799 23.5797L34.0203 26.3914ZM18.9054 23.3753H25.8628L21.1905 26.3914H16.5054L18.9054 23.3753ZM16.6714 28.6407H20.8075L25.4033 38.5196L16.6714 28.6407ZM29.6799 42.392L23.2969 28.6407H36.0756L29.6799 42.392ZM33.9565 38.5196L38.5522 28.6407H42.6884L33.9565 38.5196Z" fill="#69D548"/>
<path d="M44.602 17.0238H40.3891V12.8065C40.4147 12.1803 39.9168 11.6563 39.3041 11.6435C38.6785 11.618 38.1551 12.1164 38.1423 12.7298C38.1423 12.7554 38.1423 12.7809 38.1423 12.8065V17.0238H33.9295C33.304 16.9983 32.7806 17.4967 32.7678 18.1101C32.7551 18.7235 33.2402 19.2603 33.8529 19.2731C33.8785 19.2731 33.904 19.2731 33.9295 19.2731H38.1423V23.4904C38.1168 24.1166 38.6147 24.6406 39.2274 24.6534C39.853 24.6789 40.3764 24.1805 40.3891 23.5671C40.3891 23.5415 40.3891 23.516 40.3891 23.4904V19.2731H44.602C45.2275 19.2986 45.7509 18.8002 45.7637 18.1868C45.7764 17.5733 45.2913 17.0366 44.6785 17.0238C44.653 17.0238 44.6275 17.0238 44.602 17.0238Z" fill="#69D548"/>
</svg>
