<svg xmlns="http://www.w3.org/2000/svg" xmlns:xlink="http://www.w3.org/1999/xlink" x="0px" y="0px" width="71" height="420" viewBox="0 0 71 420" enable-background="new 0 0 71 420" xml:space="preserve">

<defs>
  <style>
    g {
      display: none;
    }
    g:target {
      display: inline;
    }
  </style>
</defs>

  <g id="chat-white" viewBox="0 0 71 70">
    <path fill-rule="evenodd" clip-rule="evenodd" d="M35.125 0C54.445 0 70.125 15.68 70.125 35C70.125 54.32 54.445 70 35.125 70C15.805 70 0.125 54.32 0.125 35C0.125 15.68 15.805 0 35.125 0Z" fill="white"/>
    <path d="M52 33.332C52 25.7005 44.3393 19.5 34.883 19.5C25.4268 19.5 17.7661 25.7005 18.0055 33.332C18.0055 36.4323 19.2024 39.2943 21.357 41.5599C21.357 41.5599 19.2024 47.8798 20.0403 48.3567C21.357 49.1914 28.2996 46.091 29.736 46.4487C32.2497 47.0449 35.0027 47.2836 37.6361 46.9259C45.7756 45.9719 52 40.2481 52 33.332Z" fill="#FF4521"/>
    <path fill-rule="evenodd" clip-rule="evenodd" d="M28.3743 31.5C29.8184 31.5 31 32.3421 31 33.3948C31 34.4474 29.9497 35.5 28.6368 35.5C27.1927 35.5 26.0111 34.6579 26.0111 33.6052V33.4999C25.8798 32.4473 26.9301 31.5 28.3743 31.5Z" fill="white"/>
    <path fill-rule="evenodd" clip-rule="evenodd" d="M34.8947 31.5C36.0526 31.5 37 32.3421 37 33.3948C37 34.4474 36.1579 35.5 35.1053 35.5C33.9474 35.5 33 34.6579 33 33.6052V33.4999C33 32.4473 33.8421 31.5 34.8947 31.5Z" fill="white"/>
    <path fill-rule="evenodd" clip-rule="evenodd" d="M41.8947 31.5C43.0526 31.5 44 32.3421 44 33.3948C44 34.4474 43.1579 35.5 42.1053 35.5C40.9474 35.5 40 34.6579 40 33.6052V33.4999C40 32.4473 40.8421 31.5 41.8947 31.5Z" fill="white"/>
  </g>

  <g id="chat-orange" viewBox="0 70 71 70">
    <path fill-rule="evenodd" clip-rule="evenodd" d="M35.125 0C54.445 0 70.125 15.68 70.125 35C70.125 54.32 54.445 70 35.125 70C15.805 70 0.125 54.32 0.125 35C0.125 15.68 15.805 0 35.125 0Z" fill="#FF4521"/>
    <path d="M52 33.332C52 25.7005 44.3393 19.5 34.883 19.5C25.4268 19.5 17.7661 25.7005 18.0055 33.332C18.0055 36.4323 19.2024 39.2943 21.357 41.5599C21.357 41.5599 19.2024 47.8798 20.0403 48.3567C21.357 49.1914 28.2996 46.091 29.736 46.4487C32.2497 47.0449 35.0027 47.2836 37.6361 46.9259C45.7756 45.9719 52 40.2481 52 33.332Z" fill="#FFFFFF"/>
    <path fill-rule="evenodd" clip-rule="evenodd" d="M28.3743 31.5C29.8184 31.5 31 32.3421 31 33.3948C31 34.4474 29.9497 35.5 28.6368 35.5C27.1927 35.5 26.0111 34.6579 26.0111 33.6052V33.4999C25.8798 32.4473 26.9301 31.5 28.3743 31.5Z" fill="#FF4521"/>
    <path fill-rule="evenodd" clip-rule="evenodd" d="M34.8947 31.5C36.0526 31.5 37 32.3421 37 33.3948C37 34.4474 36.1579 35.5 35.1053 35.5C33.9474 35.5 33 34.6579 33 33.6052V33.4999C33 32.4473 33.8421 31.5 34.8947 31.5Z" fill="#FF4521"/>
    <path fill-rule="evenodd" clip-rule="evenodd" d="M41.8947 31.5C43.0526 31.5 44 32.3421 44 33.3948C44 34.4474 43.1579 35.5 42.1053 35.5C40.9474 35.5 40 34.6579 40 33.6052V33.4999C40 32.4473 40.8421 31.5 41.8947 31.5Z" fill="#FF4521"/>
  </g>

  <g id="chat-white-circle" viewBox="0 0 70 70">
    <path fill="#fff" stroke="#fff" stroke-linejoin="miter" stroke-linecap="butt" stroke-miterlimit="4" stroke-width="1.5" d="M35.125 1.25c18.906 0 34.25 15.344 34.25 34.25s-15.344 34.25-34.25 34.25c-18.906 0-34.25-15.344-34.25-34.25s15.344-34.25 34.25-34.25z"></path>
    <path fill="#ff4521" d="M52 33.832c0-7.632-7.661-13.832-17.117-13.832s-17.117 6.2-16.878 13.832c0 3.1 1.197 5.962 3.352 8.228 0 0-2.155 6.32-1.317 6.797 1.317 0.835 8.259-2.266 9.696-1.908 2.514 0.596 5.267 0.835 7.9 0.477 8.139-0.954 14.364-6.678 14.364-13.594z"></path>
    <path fill="#fff" d="M28.374 32c1.444 0 2.626 0.842 2.626 1.895s-1.050 2.105-2.363 2.105c-1.444 0-2.626-0.842-2.626-1.895v-0.105c-0.131-1.053 0.919-2 2.363-2z"></path>
    <path fill="#fff" d="M34.895 32c1.158 0 2.105 0.842 2.105 1.895s-0.842 2.105-1.895 2.105c-1.158 0-2.105-0.842-2.105-1.895v-0.105c0-1.053 0.842-2 1.895-2z"></path>
    <path fill="#fff" d="M41.895 32c1.158 0 2.105 0.842 2.105 1.895s-0.842 2.105-1.895 2.105c-1.158 0-2.105-0.842-2.105-1.895v-0.105c0-1.053 0.842-2 1.895-2z"></path>
  </g>

  <g id="chat-orange-circle" viewBox="0 0 70 70">
    <path fill="#ff4521" stroke="#fff" stroke-linejoin="miter" stroke-linecap="butt" stroke-miterlimit="4" stroke-width="1.5" d="M35.125 1.25c18.906 0 34.25 15.344 34.25 34.25s-15.344 34.25-34.25 34.25c-18.906 0-34.25-15.344-34.25-34.25s15.344-34.25 34.25-34.25z"></path>
    <path fill="#fff" d="M52 33.832c0-7.632-7.661-13.832-17.117-13.832s-17.117 6.2-16.878 13.832c0 3.1 1.197 5.962 3.352 8.228 0 0-2.155 6.32-1.317 6.797 1.317 0.835 8.259-2.266 9.696-1.908 2.514 0.596 5.267 0.835 7.9 0.477 8.139-0.954 14.364-6.678 14.364-13.594z"></path>
    <path fill="#ff4521" d="M28.374 32c1.444 0 2.626 0.842 2.626 1.895s-1.050 2.105-2.363 2.105c-1.444 0-2.626-0.842-2.626-1.895v-0.105c-0.131-1.053 0.919-2 2.363-2z"></path>
    <path fill="#ff4521" d="M34.895 32c1.158 0 2.105 0.842 2.105 1.895s-0.842 2.105-1.895 2.105c-1.158 0-2.105-0.842-2.105-1.895v-0.105c0-1.053 0.842-2 1.895-2z"></path>
    <path fill="#ff4521" d="M41.895 32c1.158 0 2.105 0.842 2.105 1.895s-0.842 2.105-1.895 2.105c-1.158 0-2.105-0.842-2.105-1.895v-0.105c0-1.053 0.842-2 1.895-2z"></path>
  </g>

  <g id="chat-white-small" viewBox="0 0 49 49">
    <path fill-rule="evenodd" clip-rule="evenodd" d="M24.6629 0C38.1734 0 49.1384 10.965 49.1384 24.4754C49.1384 37.9859 38.1734 48.9509 24.6629 48.9509C11.1525 48.9509 0.1875 37.9859 0.1875 24.4754C0.1875 10.965 11.1525 0 24.6629 0Z" fill="white"/>
    <path d="M36.4636 23.3094C36.4636 17.9727 31.1065 13.6367 24.4938 13.6367C17.881 13.6367 12.5239 17.9727 12.6913 23.3094C12.6913 25.4775 13.5284 27.4789 15.0351 29.0632C15.0351 29.0632 13.5283 33.4826 14.1143 33.8162C15.035 34.3999 19.89 32.2318 20.8944 32.4819C22.6523 32.8989 24.5775 33.0658 26.419 32.8156C32.111 32.1485 36.4636 28.1458 36.4636 23.3094Z" fill="#FF4521"/>
    <path fill-rule="evenodd" clip-rule="evenodd" d="M19.9396 22.0273C20.9495 22.0273 21.7758 22.6163 21.7758 23.3523C21.7758 24.0884 21.0413 24.8245 20.1232 24.8245C19.1133 24.8245 18.287 24.2356 18.287 23.4995V23.4259C18.1952 22.6898 18.9297 22.0273 19.9396 22.0273Z" fill="white"/>
    <path fill-rule="evenodd" clip-rule="evenodd" d="M24.4969 22.0273C25.3066 22.0273 25.9691 22.6163 25.9691 23.3523C25.9691 24.0884 25.3802 24.8245 24.6441 24.8245C23.8344 24.8245 23.1719 24.2356 23.1719 23.4995V23.4259C23.1719 22.6898 23.7608 22.0273 24.4969 22.0273Z" fill="white"/>
    <path fill-rule="evenodd" clip-rule="evenodd" d="M29.3914 22.0273C30.2011 22.0273 30.8636 22.6163 30.8636 23.3523C30.8636 24.0884 30.2747 24.8245 29.5386 24.8245C28.7289 24.8245 28.0664 24.2356 28.0664 23.4995V23.4259C28.0664 22.6898 28.6553 22.0273 29.3914 22.0273Z" fill="white"/>
  </g>


  <g id="chat-orange-small" viewBox="0 0 49 49" fill="#ff4521">
    <path d="M24.6629 0C38.1734 0 49.1384 10.965 49.1384 24.4754C49.1384 37.9859 38.1734 48.9509 24.6629 48.9509C11.1525 48.9509 0.1875 37.9859 0.1875 24.4754C0.1875 10.965 11.1525 0 24.6629 0Z" stroke="white" stroke-width="1.5"/>
    <path d="M36.4636 23.3094C36.4636 17.9727 31.1065 13.6367 24.4938 13.6367C17.881 13.6367 12.5239 17.9727 12.6913 23.3094C12.6913 25.4775 13.5284 27.4789 15.0351 29.0632C15.0351 29.0632 13.5283 33.4826 14.1143 33.8162C15.035 34.3999 19.89 32.2318 20.8944 32.4819C22.6523 32.8989 24.5775 33.0658 26.419 32.8156C32.111 32.1485 36.4636 28.1458 36.4636 23.3094Z" fill="white"/>
    <path fill-rule="evenodd" clip-rule="evenodd" d="M19.9396 22.0273C20.9495 22.0273 21.7758 22.6163 21.7758 23.3523C21.7758 24.0884 21.0413 24.8245 20.1232 24.8245C19.1133 24.8245 18.287 24.2356 18.287 23.4995V23.4259C18.1952 22.6898 18.9297 22.0273 19.9396 22.0273Z"  fill="#FF4521"/>
    <path fill-rule="evenodd" clip-rule="evenodd" d="M24.4969 22.0273C25.3066 22.0273 25.9691 22.6163 25.9691 23.3523C25.9691 24.0884 25.3802 24.8245 24.6441 24.8245C23.8344 24.8245 23.1719 24.2356 23.1719 23.4995V23.4259C23.1719 22.6898 23.7608 22.0273 24.4969 22.0273Z" fill="#FF4521"/>
    <path fill-rule="evenodd" clip-rule="evenodd"  d="M29.3914 22.0273C30.2011 22.0273 30.8636 22.6163 30.8636 23.3523C30.8636 24.0884 30.2747 24.8245 29.5386 24.8245C28.7289 24.8245 28.0664 24.2356 28.0664 23.4995V23.4259C28.0664 22.6898 28.6553 22.0273 29.3914 22.0273Z" fill="#FF4521"/>
  </g>


  <g id="mail-white" viewBox="0 140 70 71">
  <path d="M35 70.5C54.33 70.5 70 54.83 70 35.5C70 16.17 54.33 0.5 35 0.5C15.67 0.5 0 16.17 0 35.5C0 54.83 15.67 70.5 35 70.5Z" fill="white"/>
  <path fill-rule="evenodd" clip-rule="evenodd" d="M17 24.6643L28.9367 34.7086L17 44.7529V24.6643Z" fill="#FF4521"/>
  <path fill-rule="evenodd" clip-rule="evenodd" d="M51.2092 23.5L34.9054 37.1835C34.9054 37.1835 34.9054 37.1835 34.7599 37.1835L18.4561 23.5H51.2092Z" fill="#FF4521"/>
  <path fill-rule="evenodd" clip-rule="evenodd" d="M52.5187 44.6074L40.582 34.5631L52.5187 24.5188V44.6074Z" fill="#FF4521"/>
  <path fill-rule="evenodd" clip-rule="evenodd" d="M39.4175 35.8735L52.0821 46.5001H17.4365L30.1011 35.8735L34.177 39.3672C34.6137 39.6583 35.0504 39.6583 35.4872 39.3672L39.4175 35.8735Z" fill="#FF4521"/>
  </g>

  <g id="mail-orange" viewBox="0 210 70 71">
  <path d="M35 70.5C54.33 70.5 70 54.83 70 35.5C70 16.17 54.33 0.5 35 0.5C15.67 0.5 0 16.17 0 35.5C0 54.83 15.67 70.5 35 70.5Z" fill="#FF4521"/>
  <path fill-rule="evenodd" clip-rule="evenodd" d="M17 24.6643L28.9367 34.7086L17 44.7529V24.6643Z" fill="#FFFFFF"/>
  <path fill-rule="evenodd" clip-rule="evenodd" d="M51.2092 23.5L34.9054 37.1835C34.9054 37.1835 34.9054 37.1835 34.7599 37.1835L18.4561 23.5H51.2092Z" fill="#FFFFFF"/>
  <path fill-rule="evenodd" clip-rule="evenodd" d="M52.5187 44.6074L40.582 34.5631L52.5187 24.5188V44.6074Z" fill="#FFFFFF"/>
  <path fill-rule="evenodd" clip-rule="evenodd" d="M39.4175 35.8735L52.0821 46.5001H17.4365L30.1011 35.8735L34.177 39.3672C34.6137 39.6583 35.0504 39.6583 35.4872 39.3672L39.4175 35.8735Z" fill="#FFFFFF"/>
  </g>

  <g id="mail-white-circle" viewBox="0 0 70 70">
    <path fill="#fff" stroke="#fff" stroke-linejoin="miter" stroke-linecap="butt" stroke-miterlimit="4" stroke-width="1.5" d="M69.25 35c0 18.916-15.334 34.25-34.25 34.25s-34.25-15.334-34.25-34.25c0-18.916 15.334-34.25 34.25-34.25s34.25 15.334 34.25 34.25z"></path>
    <path fill="#ff4521" d="M17 24.164l11.937 10.044-11.937 10.044v-20.089z"></path>
    <path fill="#ff4521" d="M51.209 23l-16.304 13.683c0 0 0 0-0.145 0l-16.304-13.683h32.753z"></path>
    <path fill="#ff4521" d="M52.519 44.107l-11.937-10.044 11.937-10.044v20.089z"></path>
    <path fill="#ff4521" d="M39.418 35.374l12.665 10.627h-34.646l12.665-10.627 4.076 3.494c0.437 0.291 0.873 0.291 1.31 0l3.93-3.494z"></path>
  </g>

  <g id="mail-orange-circle" viewBox="0 0 70 70">
    <path fill="#ff4521" stroke="#fff" stroke-linejoin="miter" stroke-linecap="butt" stroke-miterlimit="4" stroke-width="1.5" d="M69.25 35c0 18.916-15.334 34.25-34.25 34.25s-34.25-15.334-34.25-34.25c0-18.916 15.334-34.25 34.25-34.25s34.25 15.334 34.25 34.25z"></path>
    <path fill="#fff" d="M17 24.164l11.937 10.044-11.937 10.044v-20.089z"></path>
    <path fill="#fff" d="M51.209 23l-16.304 13.683c0 0 0 0-0.145 0l-16.304-13.683h32.753z"></path>
    <path fill="#fff" d="M52.519 44.107l-11.937-10.044 11.937-10.044v20.089z"></path>
    <path fill="#fff" d="M39.418 35.374l12.665 10.627h-34.646l12.665-10.627 4.076 3.494c0.437 0.291 0.873 0.291 1.31 0l3.93-3.494z"></path>
  </g>

  <g id="mail-white-small" viewBox="0 0 49 49">
    <path d="M24.4755 48.9997C37.9929 48.9997 48.9509 38.0417 48.9509 24.5243C48.9509 11.0069 37.9929 0.0488281 24.4755 0.0488281C10.958 0.0488281 0 11.0069 0 24.5243C0 38.0417 10.958 48.9997 24.4755 48.9997Z" fill="white"/>
    <path fill-rule="evenodd" clip-rule="evenodd" d="M11.8955 16.9473L20.2428 23.9712L11.8955 30.9952V16.9473Z" fill="#FF4521"/>
    <path fill-rule="evenodd" clip-rule="evenodd" d="M35.8124 16.1328L24.4112 25.7017C24.4112 25.7017 24.4112 25.7017 24.3094 25.7017L12.9082 16.1328H35.8124Z" fill="#FF4521"/>
    <path fill-rule="evenodd" clip-rule="evenodd" d="M36.735 30.8917L28.3877 23.8677L36.735 16.8438V30.8917Z" fill="#FF4521"/>
    <path fill-rule="evenodd" clip-rule="evenodd" d="M27.5695 24.7852L36.4258 32.2163H12.1982L21.0545 24.7852L23.9049 27.2283C24.2102 27.4319 24.5156 27.4319 24.821 27.2283L27.5695 24.7852Z" fill="#FF4521"/>
  </g>

  <g id="mail-orange-small" viewBox="0 0 49 49" fill="#ff4521">
    <path d="M24.4755 48.9997C37.9929 48.9997 48.9509 38.0417 48.9509 24.5243C48.9509 11.0069 37.9929 0.0488281 24.4755 0.0488281C10.958 0.0488281 0 11.0069 0 24.5243C0 38.0417 10.958 48.9997 24.4755 48.9997Z" stroke="white" stroke-width="1.5"/>
    <path fill-rule="evenodd" clip-rule="evenodd" d="M11.8955 16.9473L20.2428 23.9712L11.8955 30.9952V16.9473Z" fill="white"/>
    <path fill-rule="evenodd" clip-rule="evenodd" d="M35.8124 16.1328L24.4112 25.7017C24.4112 25.7017 24.4112 25.7017 24.3094 25.7017L12.9082 16.1328H35.8124Z" fill="white"/>
    <path fill-rule="evenodd" clip-rule="evenodd" d="M36.735 30.8917L28.3877 23.8677L36.735 16.8438V30.8917Z" fill="white"/>
    <path fill-rule="evenodd" clip-rule="evenodd" d="M27.5695 24.7852L36.4258 32.2163H12.1982L21.0545 24.7852L23.9049 27.2283C24.2102 27.4319 24.5156 27.4319 24.821 27.2283L27.5695 24.7852Z" fill="white"/>
  </g>

  <g id="phone-white" viewBox="0 280 71 70">
  <path fill-rule="evenodd" clip-rule="evenodd" d="M35.125 0C54.445 0 70.125 15.68 70.125 35C70.125 54.32 54.445 70 35.125 70C15.805 70 0.125 54.32 0.125 35C0.125 15.68 15.805 0 35.125 0Z" fill="white"/>
  <path fill-rule="evenodd" clip-rule="evenodd" d="M27.6207 33.102L30.8275 29.6741L28.2842 21.0491C27.1784 20.4962 25.8515 20.3856 24.6352 20.6068C8.49096 29.7847 38.789 61.0779 50.3995 49.025C50.8418 47.6981 50.9524 46.3712 50.9524 44.9337L43.3226 40.5106L39.3419 44.4914C34.6976 43.1644 30.8275 39.4048 27.6207 33.102Z" fill="#FF4521"/>
  </g>

  <g id="phone-orange" viewBox="0 350 71 70">
  <path fill-rule="evenodd" clip-rule="evenodd" d="M35.125 0C54.445 0 70.125 15.68 70.125 35C70.125 54.32 54.445 70 35.125 70C15.805 70 0.125 54.32 0.125 35C0.125 15.68 15.805 0 35.125 0Z" fill="#FF4521"/>
  <path fill-rule="evenodd" clip-rule="evenodd" d="M27.6207 33.102L30.8275 29.6741L28.2842 21.0491C27.1784 20.4962 25.8515 20.3856 24.6352 20.6068C8.49096 29.7847 38.789 61.0779 50.3995 49.025C50.8418 47.6981 50.9524 46.3712 50.9524 44.9337L43.3226 40.5106L39.3419 44.4914C34.6976 43.1644 30.8275 39.4048 27.6207 33.102Z" fill="#FFFFFF"/>
  </g>

  <g id="phone-white-circle" viewBox="0 0 70 70">
    <path fill="#fff" stroke="#fff" stroke-linejoin="miter" stroke-linecap="butt" stroke-miterlimit="4" stroke-width="1.5" d="M35.125 1.25c18.906 0 34.25 15.344 34.25 34.25s-15.344 34.25-34.25 34.25c-18.906 0-34.25-15.344-34.25-34.25s15.344-34.25 34.25-34.25z"></path>
    <path fill="#ff4521" d="M27.621 33.602l3.207-3.428-2.543-8.625c-1.106-0.553-2.433-0.663-3.649-0.442-16.144 9.178 14.154 40.471 25.764 28.418 0.442-1.327 0.553-2.654 0.553-4.091l-7.63-4.423-3.981 3.981c-4.644-1.327-8.514-5.087-11.721-11.389z"></path>
  </g>

  <g id="phone-orange-circle" viewBox="0 0 70 70">
    <path fill="#ff4521" stroke="#fff" stroke-linejoin="miter" stroke-linecap="butt" stroke-miterlimit="4" stroke-width="1.5" d="M35.125 1.25c18.906 0 34.25 15.344 34.25 34.25s-15.344 34.25-34.25 34.25c-18.906 0-34.25-15.344-34.25-34.25s15.344-34.25 34.25-34.25z"></path>
    <path fill="#fff" d="M27.621 33.602l3.207-3.428-2.543-8.625c-1.106-0.553-2.433-0.663-3.649-0.442-16.144 9.178 14.154 40.471 25.764 28.418 0.442-1.327 0.553-2.654 0.553-4.091l-7.63-4.423-3.981 3.981c-4.644-1.327-8.514-5.087-11.721-11.389z"></path>
  </g>

  <g id="phone-white-small" viewBox="0 0 49 49">
    <path fill-rule="evenodd" clip-rule="evenodd" d="M25.1141 0C38.6246 0 49.5896 10.965 49.5896 24.4754C49.5896 37.9859 38.6246 48.9509 25.1141 48.9509C11.6037 48.9509 0.638672 37.9859 0.638672 24.4754C0.638672 10.965 11.6037 0 25.1141 0Z" fill="white"/>
    <path fill-rule="evenodd" clip-rule="evenodd" d="M19.8624 23.1485L22.1048 20.7514L20.3263 14.7199C19.5531 14.3333 18.6251 14.256 17.7746 14.4106C6.48495 20.8287 27.6723 42.712 35.7915 34.2834C36.1009 33.3555 36.1782 32.4276 36.1782 31.4224L30.8427 28.3293L28.0589 31.1131C24.8112 30.1852 22.1048 27.5561 19.8624 23.1485Z" fill="#FF4521"/>
  </g>

  <g id="phone-orange-small" viewBox="0 0 49 49" fill="#ff4521">
    <path d="M25.1141 0C38.6246 0 49.5896 10.965 49.5896 24.4754C49.5896 37.9859 38.6246 48.9509 25.1141 48.9509C11.6037 48.9509 0.638672 37.9859 0.638672 24.4754C0.638672 10.965 11.6037 0 25.1141 0Z" stroke="white" stroke-width="1.5"/>
    <path fill-rule="evenodd" clip-rule="evenodd" d="M19.8624 23.1485L22.1048 20.7514L20.3263 14.7199C19.5531 14.3333 18.6251 14.256 17.7746 14.4106C6.48495 20.8287 27.6723 42.712 35.7915 34.2834C36.1009 33.3555 36.1782 32.4276 36.1782 31.4224L30.8427 28.3293L28.0589 31.1131C24.8112 30.1852 22.1048 27.5561 19.8624 23.1485Z" fill="white"/>
  </g>
</svg>