<svg width="60" height="61" viewBox="0 0 60 61" fill="none" xmlns="http://www.w3.org/2000/svg">
<path d="M29.9996 59.2415C14.1826 59.2159 1.37831 46.3592 1.40385 30.5247C1.42938 14.6903 14.2719 1.87194 30.089 1.8975C45.906 1.92306 58.7102 14.7798 58.6847 30.6142C58.6719 42.129 51.7783 52.5064 41.1826 56.9794C37.6336 58.4747 33.8294 59.2415 29.9996 59.2415Z" fill="white"/>
<path d="M30 3.00914C14.8851 3.0347 2.65532 15.3164 2.68085 30.4352C2.70638 45.5668 14.9745 57.8102 30.0766 57.7846C45.1787 57.759 57.4213 45.4774 57.3957 30.3585C57.383 19.3677 50.7957 9.45031 40.6851 5.16898C37.3021 3.72483 33.6638 2.99636 30 3.00914ZM30 0.453125C46.5702 0.453125 60 13.8978 60 30.4863C60 47.0749 46.5702 60.5195 30 60.5195C13.4298 60.5195 0 47.0749 0 30.4863C0 13.8978 13.4298 0.453125 30 0.453125Z" fill="#4CB1FF"/>
<path d="M43.5965 41.1829L38.3625 35.943H41.2604C42.1412 35.943 42.8433 35.2273 42.8433 34.3582C42.8433 33.4891 42.1284 32.7734 41.2604 32.7734H34.5327C33.6518 32.7734 32.9497 33.4764 32.9497 34.3582V41.0935C32.9497 41.9753 33.6646 42.6783 34.5327 42.6783C35.4008 42.6783 36.1157 41.9626 36.1157 41.0935V38.1923L41.3497 43.4323C41.9497 44.0713 42.9582 44.0969 43.5965 43.4834C44.2348 42.8827 44.2604 41.8731 43.6476 41.2341C43.6348 41.2213 43.6221 41.2085 43.5965 41.1829Z" fill="#4CB1FF"/>
<path d="M19.9674 43.432L25.2014 38.1922V41.0933C25.2014 41.9751 25.9163 42.678 26.7844 42.678C27.6525 42.678 28.3674 41.9623 28.3674 41.0933V34.3582C28.3674 33.4763 27.6653 32.7734 26.7844 32.7734H20.0568C19.1759 32.7734 18.4738 33.4891 18.4738 34.3582C18.4738 35.2272 19.1887 35.9429 20.0568 35.9429H22.9546L17.7206 41.1827C17.0951 41.7962 17.0951 42.8058 17.7206 43.432C18.3334 44.0455 19.3419 44.0455 19.9674 43.432Z" fill="#4CB1FF"/>
<path d="M17.7236 19.7758L22.9577 25.0156H20.0598C19.1789 25.0156 18.4768 25.7313 18.4768 26.6003C18.4768 27.4694 19.1917 28.1851 20.0598 28.1851H26.7874C27.6683 28.1851 28.3704 27.4822 28.3704 26.6003V19.8653C28.3704 18.9835 27.6555 18.2806 26.7874 18.2806C25.9194 18.2806 25.2045 18.9962 25.2045 19.8653V22.7663L19.9704 17.5265C19.3321 16.9259 18.3364 16.9387 17.7236 17.5777C17.1364 18.1911 17.1364 19.1624 17.7236 19.7758Z" fill="#4CB1FF"/>
<path d="M41.3614 17.5269L36.1274 22.7667V19.8656C36.1274 18.9838 35.4125 18.2809 34.5444 18.2809C33.6763 18.2809 32.9614 18.9966 32.9614 19.8656V26.6008C32.9614 27.4826 33.6636 28.1855 34.5444 28.1855H41.2721C42.1529 28.1855 42.855 27.4699 42.855 26.6008C42.855 25.7317 42.1401 25.0161 41.2721 25.0161H38.3742L43.6082 19.7762C44.2082 19.1372 44.1955 18.1403 43.5572 17.5269C42.9316 16.939 41.9742 16.939 41.3614 17.5269Z" fill="#4CB1FF"/>
</svg>
