<svg width="15" height="15" viewBox="0 0 15 15" fill="none" xmlns="http://www.w3.org/2000/svg" style="cursor: pointer;">
    <path d="M13.8411 13.0754L10.1443 9.3785C10.8604 8.49397 11.2915 7.37 11.2915 6.14584C11.2915 3.30859 8.98298 1 6.14576 1C3.30854 1 1 3.30857 1 6.14582C1 8.98307 3.30857 11.2917 6.14579 11.2917C7.36993 11.2917 8.49389 10.8605 9.37841 10.1444L13.0752 13.8413C13.1809 13.9469 13.3195 14 13.4582 14C13.5969 14 13.7355 13.9469 13.8412 13.8413C14.0529 13.6295 14.0529 13.2872 13.8411 13.0754ZM6.14579 10.2083C3.90547 10.2083 2.08333 8.38616 2.08333 6.14582C2.08333 3.90547 3.90547 2.08332 6.14579 2.08332C8.3861 2.08332 10.2082 3.90547 10.2082 6.14582C10.2082 8.38616 8.38608 10.2083 6.14579 10.2083Z" fill="white" stroke="white"/>
</svg>
