<svg width="103" height="102" viewBox="0 0 103 102" fill="none" xmlns="http://www.w3.org/2000/svg">
    <path d="M50.7177 100.449C78.1814 100.999 100.89 79.1801 101.44 51.7164C101.989 24.2527 80.1707 1.54372 52.7069 0.994483C25.2432 0.445245 2.53419 22.2637 1.98488 49.7274C1.43557 77.1912 23.254 99.9001 50.7177 100.449Z" fill="white"/>
    <path d="M51.9637 89.5122C44.2922 89.5122 36.7931 87.2373 30.4145 82.9753C24.036 78.7133 19.0646 72.6557 16.1288 65.5683C13.1931 58.4808 12.4249 50.6819 13.9216 43.1579C15.4182 35.6339 19.1123 28.7225 24.5368 23.298C29.9614 17.8735 36.8726 14.1794 44.3966 12.6828C51.9206 11.1862 59.7195 11.9542 66.807 14.89C73.8945 17.8257 79.9523 22.7974 84.2143 29.1759C88.4763 35.5545 90.7511 43.0534 90.7511 50.7248C90.7395 61.0083 86.6493 70.8675 79.3777 78.139C72.1062 85.4106 62.2472 89.5006 51.9637 89.5122V89.5122ZM51.9637 14.8832C44.8749 14.8832 37.9453 16.9855 32.0512 20.9238C26.1571 24.8621 21.5631 30.4598 18.8504 37.009C16.1376 43.5582 15.4279 50.7647 16.8109 57.7172C18.1938 64.6698 21.6074 71.0563 26.6199 76.0688C31.6324 81.0813 38.0188 84.4949 44.9714 85.8778C51.9239 87.2608 59.1304 86.551 65.6796 83.8382C72.2288 81.1255 77.8265 76.5318 81.7648 70.6376C85.7031 64.7435 87.8052 57.8136 87.8052 50.7248C87.7962 41.2212 84.0174 32.1097 77.298 25.3891C70.5785 18.6685 61.4672 14.8879 51.9637 14.8773V14.8832Z" fill="#EFEFEF" stroke="#EFEFEF" stroke-width="1.06783"/>
    <path d="M89.302 51.721C88.9162 51.721 88.546 51.5678 88.273 51.2951C88 51.0225 87.8464 50.6529 87.8459 50.2671C87.8322 40.881 84.0976 31.8834 77.4607 25.2465C70.8237 18.6095 61.826 14.8747 52.44 14.861C52.2444 14.8683 52.0493 14.8362 51.8665 14.7663C51.6836 14.6965 51.5168 14.5904 51.3759 14.4546C51.2349 14.3187 51.1228 14.1559 51.0462 13.9757C50.9697 13.7956 50.9302 13.6018 50.9302 13.4061C50.9302 13.2104 50.9697 13.0166 51.0462 12.8365C51.1228 12.6563 51.2349 12.4935 51.3759 12.3577C51.5168 12.2218 51.6836 12.1158 51.8665 12.0459C52.0493 11.976 52.2444 11.944 52.44 11.9512C62.6011 11.9628 72.3427 16.0044 79.5277 23.1894C86.7127 30.3744 90.7543 40.1162 90.7659 50.2773C90.7628 50.6627 90.6069 51.0312 90.3325 51.3019C90.0581 51.5726 89.6875 51.7231 89.302 51.721Z" fill="#FF5A24" stroke="#FF4521" stroke-width="1.06783"/>
    <path d="M44.5306 62.8887V61.0573C46.3246 59.2634 47.9192 57.6438 49.3145 56.1987C50.7098 54.7536 51.8808 53.4206 52.8277 52.1997C53.7745 50.9539 54.497 49.8202 54.9954 48.7986C55.4937 47.7522 55.7428 46.7431 55.7428 45.7713C55.7428 44.4009 55.3691 43.2797 54.6216 42.4077C53.8741 41.5356 52.7405 41.0996 51.2206 41.0996C50.2239 41.0996 49.302 41.3861 48.4549 41.9592C47.6077 42.5073 46.8353 43.1801 46.1377 43.9774L44.3811 42.2208C45.3778 41.1245 46.4367 40.2524 47.5579 39.6046C48.6791 38.9319 50.0246 38.5955 51.5943 38.5955C53.8118 38.5955 55.556 39.2433 56.8267 40.539C58.0974 41.8097 58.7328 43.504 58.7328 45.6218C58.7328 46.7431 58.4836 47.8767 57.9853 49.0229C57.5119 50.1441 56.8391 51.3152 55.9671 52.536C55.1199 53.732 54.0984 54.9903 52.9024 56.3108C51.7314 57.6065 50.4357 58.9893 49.0155 60.4594C49.6633 60.4095 50.3361 60.3597 51.0337 60.3099C51.7314 60.26 52.3916 60.2351 53.0145 60.2351H59.9287V62.8887H44.5306Z" fill="#1A1D30"/>
</svg>