<svg width="103" height="102" viewBox="0 0 103 102" fill="none" xmlns="http://www.w3.org/2000/svg">
    <path d="M50.4287 100.449C77.8924 100.999 100.601 79.1801 101.151 51.7164C101.7 24.2527 79.8816 1.54373 52.4179 0.994489C24.9542 0.445248 2.24513 22.2637 1.69582 49.7274C1.14651 77.1912 22.965 99.9001 50.4287 100.449Z" fill="white"/>
    <path d="M51.6736 89.5142C44.0022 89.5142 36.5031 87.2393 30.1245 82.9772C23.7459 78.7152 18.7745 72.6577 15.8388 65.5702C12.9031 58.4827 12.1349 50.6839 13.6315 43.1598C15.1281 35.6358 18.8223 28.7245 24.2468 23.2999C29.6713 17.8754 36.5826 14.1814 44.1066 12.6848C51.6306 11.1882 59.4295 11.9562 66.517 14.8919C73.6044 17.8277 79.6622 22.7993 83.9242 29.1779C88.1862 35.5564 90.461 43.0553 90.461 50.7268C90.4495 61.0103 86.3592 70.8694 79.0877 78.141C71.8162 85.4125 61.9571 89.5026 51.6736 89.5142V89.5142ZM51.6736 14.8851C44.5848 14.8851 37.6553 16.9874 31.7612 20.9257C25.8671 24.8641 21.2731 30.4617 18.5603 37.0109C15.8476 43.5601 15.1379 50.7666 16.5208 57.7192C17.9038 64.6718 21.3173 71.0582 26.3299 76.0708C31.3424 81.0833 37.7287 84.4968 44.6813 85.8798C51.6339 87.2628 58.8404 86.553 65.3896 83.8402C71.9388 81.1274 77.5364 76.5337 81.4748 70.6396C85.4131 64.7455 87.5151 57.8156 87.5151 50.7268C87.5062 41.2232 83.7274 32.1116 77.0079 25.391C70.2884 18.6704 61.1772 14.8898 51.6736 14.8793V14.8851Z" fill="#EFEFEF" stroke="#EFEFEF" stroke-width="1.06783"/>
    <path d="M51.7669 89.6793C41.4607 89.6678 31.5801 85.5685 24.2925 78.2809C17.0049 70.9933 12.9056 61.1127 12.894 50.8065C12.894 50.6126 12.9323 50.4208 13.0065 50.2417C13.0806 50.0626 13.1892 49.8999 13.3262 49.7629C13.4633 49.6258 13.626 49.517 13.8051 49.4428C13.9841 49.3687 14.176 49.3307 14.3698 49.3307C14.5637 49.3307 14.7558 49.3687 14.9349 49.4428C15.1139 49.517 15.2766 49.6258 15.4137 49.7629C15.5507 49.8999 15.6593 50.0626 15.7335 50.2417C15.8076 50.4208 15.8459 50.6126 15.8459 50.8065C15.8459 57.911 17.9526 64.8558 21.8996 70.763C25.8467 76.6702 31.4568 81.2744 38.0205 83.9932C44.5842 86.712 51.8069 87.4232 58.7749 86.0372C65.7429 84.6512 72.1434 81.23 77.167 76.2063C82.1907 71.1827 85.6119 64.7825 86.9979 57.8144C88.3839 50.8464 87.6725 43.6238 84.9537 37.06C82.2349 30.4963 77.6309 24.8865 71.7237 20.9394C65.8165 16.9923 58.8714 14.8852 51.7669 14.8852C51.3752 14.8852 50.9996 14.73 50.7226 14.453C50.4456 14.176 50.2902 13.8001 50.2902 13.4084C50.2902 13.0167 50.4456 12.6413 50.7226 12.3643C50.9996 12.0874 51.3752 11.9316 51.7669 11.9316C62.0769 11.9316 71.9647 16.0272 79.2549 23.3175C86.5452 30.6078 90.641 40.4955 90.641 50.8055C90.641 61.1155 86.5452 71.0032 79.2549 78.2935C71.9647 85.5838 62.0769 89.6793 51.7669 89.6793V89.6793Z" fill="#FF5A24" stroke="#FF4521" stroke-width="1.06783"/>
    <path d="M54.1083 62.8887V56.3108H43.3819V54.2926L53.5851 39.044H57.0235V53.8441H60.275V56.3108H57.0235V62.8887H54.1083ZM46.6335 53.8441H54.1083V46.9299C54.1083 46.2821 54.1208 45.5222 54.1457 44.6501C54.1955 43.7531 54.2453 42.9807 54.2952 42.3329H54.1457C53.8467 42.906 53.5352 43.4666 53.2113 44.0148C52.8874 44.5629 52.5511 45.1235 52.2022 45.6966L46.6335 53.8441Z" fill="black"/>
</svg>