<svg width="103" height="102" viewBox="0 0 103 102" fill="none" xmlns="http://www.w3.org/2000/svg">
    <path d="M50.5737 100.449C78.0374 100.999 100.746 79.1801 101.296 51.7164C101.845 24.2527 80.0266 1.54373 52.5629 0.994489C25.0992 0.445248 2.39015 22.2637 1.84084 49.7274C1.29153 77.1912 23.11 99.9001 50.5737 100.449Z" fill="white"/>
    <path d="M51.8191 89.5122C44.1477 89.5122 36.6486 87.2373 30.27 82.9753C23.8915 78.7133 18.92 72.6557 15.9843 65.5683C13.0486 58.4808 12.2804 50.6819 13.777 43.1579C15.2737 35.6339 18.9678 28.7225 24.3923 23.298C29.8168 17.8735 36.7281 14.1794 44.2521 12.6828C51.7761 11.1862 59.575 11.9542 66.6625 14.89C73.7499 17.8257 79.8077 22.7974 84.0697 29.1759C88.3318 35.5545 90.6065 43.0534 90.6065 50.7248C90.595 61.0083 86.5048 70.8675 79.2332 78.139C71.9617 85.4106 62.1026 89.5006 51.8191 89.5122V89.5122ZM51.8191 14.8832C44.7303 14.8832 37.8008 16.9855 31.9067 20.9238C26.0126 24.8621 21.4186 30.4598 18.7058 37.009C15.9931 43.5582 15.2834 50.7647 16.6664 57.7172C18.0493 64.6698 21.4628 71.0563 26.4754 76.0688C31.4879 81.0813 37.8742 84.4949 44.8268 85.8778C51.7794 87.2608 58.9859 86.551 65.5351 83.8382C72.0843 81.1255 77.682 76.5318 81.6203 70.6376C85.5586 64.7435 87.6607 57.8136 87.6607 50.7248C87.6517 41.2212 83.8729 32.1097 77.1534 25.3891C70.4339 18.6685 61.3227 14.8879 51.8191 14.8773V14.8832Z" fill="#EFEFEF" stroke="#EFEFEF" stroke-width="1.06783"/>
    <path d="M51.8293 89.5123C51.4387 89.5123 51.0641 89.3573 50.7879 89.0811C50.5117 88.8049 50.3564 88.4301 50.3564 88.0394C50.3564 87.6488 50.5117 87.274 50.7879 86.9978C51.0641 86.7215 51.4387 86.5665 51.8293 86.5665C61.3351 86.5665 70.4515 82.7905 77.1731 76.0689C83.8947 69.3473 87.671 60.2307 87.671 50.7249C87.671 41.2191 83.8947 32.103 77.1731 25.3814C70.4515 18.6598 61.3351 14.8833 51.8293 14.8833C51.4387 14.8833 51.0641 14.7283 50.7879 14.452C50.5117 14.1758 50.3564 13.801 50.3564 13.4104C50.3564 13.0197 50.5117 12.6454 50.7879 12.3692C51.0641 12.093 51.4387 11.9375 51.8293 11.9375C62.1164 11.9375 71.9821 16.024 79.2562 23.2981C86.5302 30.5721 90.6167 40.4378 90.6167 50.7249C90.6167 61.012 86.5302 70.8777 79.2562 78.1517C71.9821 85.4258 62.1164 89.5123 51.8293 89.5123V89.5123Z" fill="#FF5A24" stroke="#FF4521" stroke-width="1.06783"/>
    <path d="M51.7119 63.3372C50.7651 63.3372 49.893 63.2375 49.0957 63.0382C48.3233 62.8638 47.6132 62.6271 46.9654 62.3281C46.3176 62.0042 45.732 61.6429 45.2088 61.2442C44.7105 60.8456 44.262 60.422 43.8633 59.9735L45.433 57.9553C46.1556 58.7028 46.9903 59.363 47.9371 59.9361C48.9088 60.5092 50.1048 60.7957 51.525 60.7957C52.9702 60.7957 54.1537 60.4095 55.0756 59.6371C55.9975 58.8398 56.4584 57.7684 56.4584 56.423C56.4584 55.7253 56.3214 55.0899 56.0473 54.5169C55.7981 53.9189 55.3746 53.4081 54.7766 52.9845C54.1786 52.561 53.3937 52.2371 52.422 52.0128C51.4503 51.7886 50.2543 51.6764 48.8341 51.6764V49.3219C50.1048 49.3219 51.1637 49.2098 52.0109 48.9855C52.8829 48.7613 53.5806 48.4498 54.1038 48.0512C54.652 47.6525 55.0382 47.1791 55.2624 46.6309C55.4867 46.0828 55.5988 45.4973 55.5988 44.8744C55.5988 43.7033 55.2251 42.7814 54.4776 42.1087C53.755 41.4359 52.7584 41.0996 51.4876 41.0996C50.491 41.0996 49.5691 41.3238 48.722 41.7723C47.8997 42.2208 47.1273 42.8063 46.4048 43.5289L44.7603 41.5854C45.6822 40.7134 46.6913 40.0033 47.7876 39.4551C48.9088 38.882 50.1796 38.5955 51.5998 38.5955C52.6462 38.5955 53.6055 38.7325 54.4776 39.0066C55.3496 39.2807 56.0971 39.6794 56.72 40.2026C57.3678 40.7009 57.8662 41.3238 58.215 42.0713C58.5638 42.8188 58.7382 43.6784 58.7382 44.6501C58.7382 46.0952 58.3396 47.2788 57.5422 48.2007C56.7449 49.1225 55.6985 49.8327 54.4028 50.331V50.4805C55.1254 50.6549 55.7981 50.9165 56.421 51.2653C57.0439 51.5892 57.5921 52.0128 58.0655 52.536C58.5389 53.0344 58.9002 53.6199 59.1493 54.2926C59.4234 54.9654 59.5605 55.7128 59.5605 56.5351C59.5605 57.5815 59.3487 58.5284 58.9251 59.3755C58.5264 60.2227 57.9658 60.9452 57.2433 61.5432C56.5456 62.1163 55.7234 62.5648 54.7766 62.8887C53.8298 63.1877 52.8082 63.3372 51.7119 63.3372Z" fill="black"/>
</svg>