<svg width="102" height="102" viewBox="0 0 102 102" fill="none" xmlns="http://www.w3.org/2000/svg">
    <path d="M50.2836 100.449C77.7474 100.999 100.456 79.1801 101.006 51.7164C101.555 24.2527 79.7366 1.54373 52.2729 0.994489C24.8091 0.445248 2.10011 22.2637 1.5508 49.7274C1.00149 77.1912 22.8199 99.9001 50.2836 100.449Z" fill="white"/>
    <path d="M51.5365 89.5142C43.8651 89.5142 36.3659 87.2393 29.9874 82.9772C23.6088 78.7152 18.6374 72.6577 15.7017 65.5702C12.7659 58.4827 11.9977 50.6839 13.4943 43.1598C14.9909 35.6358 18.6852 28.7245 24.1097 23.2999C29.5342 17.8754 36.4453 14.1814 43.9694 12.6848C51.4934 11.1882 59.2923 11.9562 66.3797 14.8919C73.4672 17.8277 79.525 22.7993 83.787 29.1779C88.049 35.5564 90.3239 43.0553 90.3239 50.7268C90.3124 61.0103 86.222 70.8694 78.9505 78.141C71.6789 85.4125 61.82 89.5026 51.5365 89.5142V89.5142ZM51.5365 14.8851C44.4477 14.8851 37.518 16.9874 31.6239 20.9257C25.7298 24.8641 21.1361 30.4617 18.4233 37.0109C15.7106 43.5601 15.0008 50.7666 16.3837 57.7192C17.7667 64.6718 21.1802 71.0582 26.1928 76.0708C31.2053 81.0833 37.5915 84.4968 44.5441 85.8798C51.4967 87.2628 58.7034 86.553 65.2526 83.8402C71.8018 81.1274 77.3995 76.5337 81.3378 70.6396C85.2761 64.7455 87.3782 57.8156 87.3782 50.7268C87.3687 41.2234 83.5897 32.112 76.8703 25.3915C70.151 18.671 61.0399 14.8904 51.5365 14.8793V14.8851Z" fill="#FF5A24" stroke="#FF4521" stroke-width="1.06783"/>
    <path d="M51.3466 63.3372C50.3998 63.3372 49.5277 63.2375 48.7304 63.0382C47.958 62.8638 47.2479 62.6271 46.6001 62.3281C45.9772 62.0291 45.4041 61.6927 44.8809 61.319C44.3826 60.9203 43.9341 60.5092 43.5354 60.0856L45.0304 58.0674C45.728 58.79 46.5503 59.4253 47.4971 59.9735C48.4688 60.5216 49.6523 60.7957 51.0476 60.7957C51.7702 60.7957 52.4429 60.6711 53.0658 60.422C53.7136 60.1479 54.2743 59.7742 54.7477 59.3008C55.2211 58.8274 55.5948 58.2543 55.8689 57.5815C56.143 56.9088 56.28 56.1613 56.28 55.3391C56.28 53.6946 55.819 52.4115 54.8972 51.4896C53.9753 50.5677 52.7419 50.1067 51.1971 50.1067C50.3749 50.1067 49.6648 50.2313 49.0668 50.4805C48.4937 50.7296 47.8459 51.0909 47.1233 51.5643L45.4789 50.5178L46.2637 39.044H58.1861V41.6976H48.9547L48.3193 48.7613C48.8924 48.4623 49.4655 48.2256 50.0385 48.0512C50.6116 47.8767 51.2594 47.7895 51.982 47.7895C53.0035 47.7895 53.9628 47.939 54.8598 48.238C55.7568 48.537 56.5416 48.998 57.2143 49.6209C57.8871 50.2189 58.4103 50.9912 58.7841 51.9381C59.1827 52.86 59.382 53.9687 59.382 55.2644C59.382 56.56 59.1578 57.7061 58.7093 58.7028C58.2608 59.6994 57.6628 60.5466 56.9154 61.2442C56.1679 61.9169 55.3083 62.4402 54.3365 62.8139C53.3897 63.1627 52.3931 63.3372 51.3466 63.3372Z" fill="black"/>
</svg>