<svg width="102" height="102" viewBox="0 0 102 102" fill="none" xmlns="http://www.w3.org/2000/svg">
    <path d="M49.7265 100.449C77.1902 100.999 99.8993 79.1801 100.449 51.7164C100.998 24.2527 79.1794 1.54372 51.7157 0.994483C24.252 0.445245 1.54298 22.2637 0.993666 49.7274C0.444356 77.1912 22.2628 99.9001 49.7265 100.449Z" fill="white"/>
    <path d="M50.9725 89.5122C43.301 89.5122 35.8019 87.2373 29.4233 82.9753C23.0448 78.7133 18.0733 72.6557 15.1376 65.5683C12.2019 58.4808 11.4337 50.6819 12.9304 43.1579C14.427 35.6339 18.1211 28.7225 23.5456 23.298C28.9702 17.8735 35.8814 14.1794 43.4054 12.6828C50.9294 11.1862 58.7283 11.9542 65.8158 14.89C72.9033 17.8257 78.961 22.7974 83.2231 29.1759C87.4851 35.5545 89.7599 43.0534 89.7599 50.7248C89.7483 61.0083 85.6581 70.8675 78.3865 78.139C71.115 85.4106 61.256 89.5006 50.9725 89.5122V89.5122ZM50.9725 14.8832C43.8837 14.8832 36.9541 16.9855 31.06 20.9238C25.1659 24.8621 20.5719 30.4598 17.8592 37.009C15.1464 43.5582 14.4367 50.7647 15.8197 57.7172C17.2026 64.6698 20.6162 71.0563 25.6287 76.0688C30.6412 81.0813 37.0276 84.4949 43.9801 85.8778C50.9327 87.2608 58.1392 86.551 64.6884 83.8382C71.2376 81.1255 76.8353 76.5318 80.7736 70.6376C84.7119 64.7435 86.814 57.8136 86.814 50.7248C86.805 41.2212 83.0262 32.1097 76.3067 25.3891C69.5873 18.6685 60.476 14.8879 50.9725 14.8773V14.8832Z" fill="#EFEFEF" stroke="#EFEFEF" stroke-width="1.06783"/>
    <path d="M44.997 62.8887V60.3472H50.4536V42.7814H46.1182V40.8006C47.2145 40.6012 48.1613 40.3645 48.9586 40.0905C49.7809 39.7915 50.5159 39.4427 51.1637 39.044H53.5183V60.3472H58.4517V62.8887H44.997Z" fill="black"/>
</svg>