<svg xmlns="http://www.w3.org/2000/svg" width="18" height="18">
    <path fill="#D9DCE0" fill-rule="evenodd"
          d="M8.792 17.957c-4.698 0-8.506-3.806-8.506-8.501 0-4.695 3.808-8.5 8.506-8.5s8.506 3.805 8.506 8.5-3.808 8.501-8.506 8.501zm0-15.388A6.89 6.89 0 0 0 1.9 9.456a6.889 6.889 0 0 0 6.892 6.888 6.89 6.89 0 0 0 6.892-6.888 6.89 6.89 0 0 0-6.892-6.887zM6.961 12.632h.55V9.509h-.55V7.81h3.034v4.822h.627v1.711H6.961v-1.711zm1.779-5.41c-.824 0-1.413-.692-1.413-1.319 0-.601.497-1.333 1.413-1.333.902 0 1.438.732 1.438 1.333 0 .718-.51 1.319-1.438 1.319z"/>
</svg>
